<?xml version="1.0" encoding="UTF-8"?>
<!DOCTYPE svg PUBLIC "-//W3C//DTD SVG 1.1//EN" "http://www.w3.org/Graphics/SVG/1.1/DTD/svg11.dtd">
<svg xmlns="http://www.w3.org/2000/svg" version="1.1" width="2000px" height="2000px" style="shape-rendering:geometricPrecision; text-rendering:geometricPrecision; image-rendering:optimizeQuality; fill-rule:evenodd; clip-rule:evenodd" xmlns:xlink="http://www.w3.org/1999/xlink">
<g><path style="opacity:1" fill="#fefefe" d="M -0.5,-0.5 C 666.167,-0.5 1332.83,-0.5 1999.5,-0.5C 1999.5,666.167 1999.5,1332.83 1999.5,1999.5C 1332.83,1999.5 666.167,1999.5 -0.5,1999.5C -0.5,1332.83 -0.5,666.167 -0.5,-0.5 Z"/></g>
<g><path style="opacity:1" fill="#39aa3e" d="M 1043.5,279.5 C 1053.45,281.143 1062.12,285.476 1069.5,292.5C 1083.21,310.486 1084.04,329.152 1072,348.5C 1064.25,357.626 1054.42,362.96 1042.5,364.5C 1044.55,369.804 1046.72,375.137 1049,380.5C 1049.49,382.134 1049.66,383.801 1049.5,385.5C 1017.49,392.082 995.989,380.082 985,349.5C 984.196,348.196 983.029,347.529 981.5,347.5C 976.992,352.111 971.992,356.278 966.5,360C 950.326,368.469 933.659,369.636 916.5,363.5C 915.547,380.953 906.38,390.286 889,391.5C 885.523,391.672 882.356,391.006 879.5,389.5C 879.678,386.784 880.178,384.117 881,381.5C 883.187,375.802 885.353,370.135 887.5,364.5C 866.98,364.147 852.814,354.481 845,335.5C 839.15,310.703 847.65,292.87 870.5,282C 898.046,275.355 916.88,285.188 927,311.5C 927.171,316.864 927.671,322.198 928.5,327.5C 950.399,317.938 972.733,316.938 995.5,324.5C 995.886,302.891 1006.22,288.391 1026.5,281C 1032.1,279.783 1037.77,279.283 1043.5,279.5 Z"/></g>
<g><path style="opacity:1" fill="#e8dffe" d="M 1069.5,292.5 C 1074.12,294.144 1078.45,296.311 1082.5,299C 1124.16,324.489 1162.16,354.656 1196.5,389.5C 1179.75,378.636 1161.42,371.802 1141.5,369C 1138.83,368.333 1136.17,368.333 1133.5,369C 1163.27,372.574 1189.1,384.407 1211,404.5C 1211.72,403.956 1212.22,403.289 1212.5,402.5C 1231.84,418.16 1251.84,432.827 1272.5,446.5C 1291.31,457.23 1309.98,467.896 1328.5,478.5C 1305.66,509.505 1284.33,541.505 1264.5,574.5C 1236.68,545.836 1208.84,516.836 1181,487.5C 1180.33,486.748 1179.5,486.414 1178.5,486.5C 1178.06,485.494 1177.4,485.494 1176.5,486.5C 1176.41,485.504 1176.75,484.671 1177.5,484C 1147.72,455.073 1112.06,441.24 1070.5,442.5C 1072.77,440.222 1075.43,438.389 1078.5,437C 1090.79,424.294 1090.46,411.961 1077.5,400C 1069.21,395.649 1060.87,395.483 1052.5,399.5C 1052.5,394.5 1051.5,389.833 1049.5,385.5C 1049.66,383.801 1049.49,382.134 1049,380.5C 1046.72,375.137 1044.55,369.804 1042.5,364.5C 1054.42,362.96 1064.25,357.626 1072,348.5C 1084.04,329.152 1083.21,310.486 1069.5,292.5 Z"/></g>
<g><path style="opacity:1" fill="#fd9391" d="M 1049.5,385.5 C 1051.5,389.833 1052.5,394.5 1052.5,399.5C 1060.87,395.483 1069.21,395.649 1077.5,400C 1090.46,411.961 1090.79,424.294 1078.5,437C 1075.43,438.389 1072.77,440.222 1070.5,442.5C 1068.34,445.437 1066.84,448.771 1066,452.5C 1057.57,461.814 1049.24,461.814 1041,452.5C 1040.6,452.728 1040.43,453.062 1040.5,453.5C 1038.98,453.511 1037.82,454.177 1037,455.5C 1019.97,480.605 996.137,493.605 965.5,494.5C 932.765,493.222 907.598,478.889 890,451.5C 889.283,452.044 888.783,452.711 888.5,453.5C 881.482,461.14 873.982,461.473 866,454.5C 864.312,450.696 862.479,447.03 860.5,443.5C 856.494,440.066 852.328,436.732 848,433.5C 843.293,425.988 842.293,417.988 845,409.5C 852.594,397.024 863.094,393.691 876.5,399.5C 877.513,396.047 878.513,392.713 879.5,389.5C 882.356,391.006 885.523,391.672 889,391.5C 906.38,390.286 915.547,380.953 916.5,363.5C 933.659,369.636 950.326,368.469 966.5,360C 971.992,356.278 976.992,352.111 981.5,347.5C 983.029,347.529 984.196,348.196 985,349.5C 995.989,380.082 1017.49,392.082 1049.5,385.5 Z"/></g>
<g><path style="opacity:1" fill="#fe9391" d="M 1413.5,447.5 C 1411.97,447.517 1411.47,448.184 1412,449.5C 1425.11,458.816 1430.44,471.482 1428,487.5C 1425.89,494.391 1422.72,500.724 1418.5,506.5C 1419.27,507.711 1420.11,507.711 1421,506.5C 1431.31,492.362 1432.97,477.362 1426,461.5C 1423.72,457.051 1420.55,453.384 1416.5,450.5C 1417.1,449.861 1417.93,449.528 1419,449.5C 1434.78,452.682 1450.61,455.349 1466.5,457.5C 1465.86,458.482 1465.19,459.482 1464.5,460.5C 1465.27,461.711 1466.11,461.711 1467,460.5C 1480.33,443.167 1493.67,425.833 1507,408.5C 1514.75,399.612 1524.25,397.112 1535.5,401C 1543.26,403.926 1547.93,409.426 1549.5,417.5C 1538.97,413.705 1529.3,415.205 1520.5,422C 1503.65,441.353 1486.98,460.853 1470.5,480.5C 1470.67,480.833 1470.83,481.167 1471,481.5C 1487.71,463.129 1504.04,444.463 1520,425.5C 1529.92,416.295 1540.75,415.128 1552.5,422C 1561.97,430.863 1564.13,441.363 1559,453.5C 1557.91,455.349 1556.57,457.016 1555,458.5C 1539.98,437.948 1523.98,437.281 1507,456.5C 1494.35,471.315 1481.52,485.981 1468.5,500.5C 1469,501.521 1469.67,501.688 1470.5,501C 1483.37,487.13 1495.87,472.964 1508,458.5C 1512.24,453.585 1517.08,449.419 1522.5,446C 1536.57,442.616 1546.73,447.449 1553,460.5C 1553.79,466.237 1553.46,471.903 1552,477.5C 1545.05,487.451 1537.72,497.117 1530,506.5C 1528.63,487.461 1518.46,478.961 1499.5,481C 1495.61,482.527 1492.11,484.694 1489,487.5C 1479.57,500.015 1469.91,512.348 1460,524.5C 1459.31,525.332 1459.48,525.998 1460.5,526.5C 1471.66,513.17 1482.66,499.67 1493.5,486C 1511.56,477.864 1522.89,483.364 1527.5,502.5C 1527.32,505.226 1526.82,507.893 1526,510.5C 1515.64,525.01 1505.14,539.344 1494.5,553.5C 1492.66,556.168 1490.33,558.334 1487.5,560C 1460.33,570.39 1433.49,581.557 1407,593.5C 1390.67,656.828 1374.34,720.161 1358,783.5C 1337.91,827.224 1303.74,847.39 1255.5,844C 1210.18,834.846 1183.18,807.679 1174.5,762.5C 1172.05,743.651 1174.88,725.651 1183,708.5C 1209.93,663.639 1237.09,618.972 1264.5,574.5C 1284.33,541.505 1305.66,509.505 1328.5,478.5C 1338.5,465.824 1348.16,452.824 1357.5,439.5C 1372.86,422.969 1387.7,405.969 1402,388.5C 1411.86,378.223 1423.03,376.723 1435.5,384C 1446,394.166 1447.17,405.333 1439,417.5C 1430.25,427.345 1421.75,437.345 1413.5,447.5 Z"/></g>
<g><path style="opacity:1" fill="#2e2c2e" d="M 1196.5,389.5 C 1201.81,393.803 1207.14,398.137 1212.5,402.5C 1212.22,403.289 1211.72,403.956 1211,404.5C 1189.1,384.407 1163.27,372.574 1133.5,369C 1136.17,368.333 1138.83,368.333 1141.5,369C 1161.42,371.802 1179.75,378.636 1196.5,389.5 Z"/></g>
<g><path style="opacity:1" fill="#211e1c" d="M 977.5,386.5 C 979.527,386.338 981.527,386.505 983.5,387C 988.424,390.713 993.258,394.546 998,398.5C 998.833,403 997,404.833 992.5,404C 987.044,400.213 981.877,396.046 977,391.5C 976.36,389.735 976.527,388.068 977.5,386.5 Z"/></g>
<g><path style="opacity:1" fill="#fe9391" d="M 526.5,460.5 C 544.206,460.961 561.873,461.961 579.5,463.5C 569.455,475.007 565.955,488.34 569,503.5C 570.639,509.933 573.139,515.933 576.5,521.5C 576.833,521.167 577.167,520.833 577.5,520.5C 568.817,504.369 568.317,488.036 576,471.5C 577.643,469.023 579.476,466.69 581.5,464.5C 581.376,463.893 581.043,463.56 580.5,463.5C 574.345,450.522 568.178,437.522 562,424.5C 559.459,402.463 569.292,392.63 591.5,395C 595.956,396.979 599.79,399.813 603,403.5C 613.349,424.198 623.682,444.864 634,465.5C 649.27,503.148 664.437,540.814 679.5,578.5C 699.177,643.538 719.01,708.538 739,773.5C 741.179,787.597 740.679,801.597 737.5,815.5C 726.33,852.831 701.664,875.998 663.5,885C 616.168,891.086 581.334,873.253 559,831.5C 554.855,822.219 552.188,812.553 551,802.5C 550.833,736.497 550.333,670.497 549.5,604.5C 525.064,586.531 500.897,568.198 477,549.5C 476.209,548.255 475.709,546.922 475.5,545.5C 469.107,529.829 462.607,514.162 456,498.5C 454.301,483.697 460.801,475.031 475.5,472.5C 482.405,472.87 488.239,475.537 493,480.5C 500.183,496.197 507.35,511.864 514.5,527.5C 514.833,527 515.167,526.5 515.5,526C 509.079,510.324 502.246,494.824 495,479.5C 485.32,469.697 474.486,468.197 462.5,475C 457.066,480.036 453.899,486.203 453,493.5C 447.805,481.581 442.805,469.581 438,457.5C 437.126,438.374 446.293,429.207 465.5,430C 471.378,431.525 476.211,434.692 480,439.5C 489.426,460.016 499.093,480.35 509,500.5C 509.893,501.711 510.726,501.711 511.5,500.5C 501.392,480.366 491.558,460.033 482,439.5C 475.291,430.035 466.125,426.202 454.5,428C 448.876,429.956 444.043,433.123 440,437.5C 433.775,421.785 438.275,410.285 453.5,403C 465.616,400.589 475.116,404.423 482,414.5C 492.323,435.814 503.156,456.814 514.5,477.5C 514.833,477.167 515.167,476.833 515.5,476.5C 504.574,454.313 493.407,432.313 482,410.5C 475.005,402.535 466.172,399.035 455.5,400C 465.05,386.533 477.05,383.866 491.5,392C 494.04,394.205 496.207,396.705 498,399.5C 507.167,420.5 516.333,441.5 525.5,462.5C 527.643,463.329 527.976,462.663 526.5,460.5 Z"/></g>
<g><path style="opacity:1" fill="#221f1d" d="M 939.5,387.5 C 945.704,387.314 947.037,389.814 943.5,395C 937.5,398.667 931.5,402.333 925.5,406C 920.667,407.166 918.833,405.333 920,400.5C 926.405,395.911 932.905,391.578 939.5,387.5 Z"/></g>
<g><path style="opacity:1" fill="#2d2b2e" d="M 1100.5,397.5 C 1140.92,400.847 1175.92,416.181 1205.5,443.5C 1205,444.521 1204.33,444.688 1203.5,444C 1175.48,418.477 1142.48,403.643 1104.5,399.5C 1102.67,399.415 1101.33,398.748 1100.5,397.5 Z"/></g>
<g><path style="opacity:1" fill="#e8dffe" d="M 1043.5,279.5 C 1037.77,279.283 1032.1,279.783 1026.5,281C 1006.22,288.391 995.886,302.891 995.5,324.5C 972.733,316.938 950.399,317.938 928.5,327.5C 927.671,322.198 927.171,316.864 927,311.5C 916.88,285.188 898.046,275.355 870.5,282C 847.65,292.87 839.15,310.703 845,335.5C 852.814,354.481 866.98,364.147 887.5,364.5C 885.353,370.135 883.187,375.802 881,381.5C 880.178,384.117 879.678,386.784 879.5,389.5C 878.513,392.713 877.513,396.047 876.5,399.5C 863.094,393.691 852.594,397.024 845,409.5C 842.293,417.988 843.293,425.988 848,433.5C 852.328,436.732 856.494,440.066 860.5,443.5C 858.777,444.8 856.61,445.467 854,445.5C 813.894,445.888 781.061,461.222 755.5,491.5C 755.5,492.167 755.5,492.833 755.5,493.5C 754.761,493.369 754.094,493.536 753.5,494C 730.362,520.405 706.862,546.572 683,572.5C 681.579,574.405 680.412,576.405 679.5,578.5C 664.437,540.814 649.27,503.148 634,465.5C 623.682,444.864 613.349,424.198 603,403.5C 599.79,399.813 595.956,396.979 591.5,395C 569.292,392.63 559.459,402.463 562,424.5C 568.178,437.522 574.345,450.522 580.5,463.5C 580.167,463.5 579.833,463.5 579.5,463.5C 561.873,461.961 544.206,460.961 526.5,460.5C 517.298,438.738 507.798,417.072 498,395.5C 487.268,384.478 475.101,382.645 461.5,390C 457.908,392.921 455.075,396.421 453,400.5C 435.915,409.082 431.082,422.249 438.5,440C 435.753,445.546 434.919,451.379 436,457.5C 447.949,486.733 460.449,515.733 473.5,544.5C 473.957,545.298 474.624,545.631 475.5,545.5C 475.709,546.922 476.209,548.255 477,549.5C 500.897,568.198 525.064,586.531 549.5,604.5C 550.333,670.497 550.833,736.497 551,802.5C 552.188,812.553 554.855,822.219 559,831.5C 581.334,873.253 616.168,891.086 663.5,885C 701.664,875.998 726.33,852.831 737.5,815.5C 758.755,767.905 779.088,719.905 798.5,671.5C 798.5,672.5 798.5,673.5 798.5,674.5C 788.872,772.219 778.705,869.886 768,967.5C 767.417,976.166 766.917,984.833 766.5,993.5C 908.167,993.5 1049.83,993.5 1191.5,993.5C 1191.5,993.833 1191.5,994.167 1191.5,994.5C 1049.16,993.835 907.163,994.502 765.5,996.5C 757.851,1063.96 750.851,1131.62 744.5,1199.5C 740.834,1218.14 740.668,1236.81 744,1255.5C 751.172,1273.51 759.172,1291.18 768,1308.5C 768.243,1385.83 768.076,1463.17 767.5,1540.5C 766.847,1578.5 766.513,1616.5 766.5,1654.5C 768.162,1667.26 765.996,1679.26 760,1690.5C 756.902,1694.11 753.402,1697.11 749.5,1699.5C 745.164,1693.49 740.831,1687.49 736.5,1681.5C 735.479,1682 735.312,1682.67 736,1683.5C 740.083,1689.4 743.917,1695.4 747.5,1701.5C 740.828,1704.5 734.162,1707.5 727.5,1710.5C 724.099,1705.39 720.432,1700.39 716.5,1695.5C 715.592,1696.79 715.759,1698.12 717,1699.5C 719.664,1703.66 722.497,1707.66 725.5,1711.5C 694.136,1726.18 662.803,1740.85 631.5,1755.5C 630.29,1755.93 629.29,1756.6 628.5,1757.5C 623.653,1759.43 622.32,1762.76 624.5,1767.5C 624.5,1768.17 624.5,1768.83 624.5,1769.5C 516.5,1769.5 408.5,1769.5 300.5,1769.5C 361.665,1768.67 422.999,1768.17 484.5,1768C 397.978,1664 350.811,1543.83 343,1407.5C 341.306,1364.94 343.639,1322.61 350,1280.5C 356.473,1252.8 362.139,1224.8 367,1196.5C 374.513,1141.44 374.179,1086.44 366,1031.5C 359.615,997.579 350.949,964.245 340,931.5C 323.71,891.676 313.044,850.343 308,807.5C 291.967,650.287 335.967,512.954 440,395.5C 567.68,263.045 723.18,209.545 906.5,235C 954.6,243.255 1000.27,258.088 1043.5,279.5 Z"/></g>
<g><path style="opacity:1" fill="#2f2c30" d="M 790.5,367.5 C 791.978,367.238 793.311,367.571 794.5,368.5C 771.823,371.453 750.823,379.286 731.5,392C 726.461,395.526 721.794,399.526 717.5,404C 716.668,404.688 716.002,404.521 715.5,403.5C 736.505,383.164 761.505,371.164 790.5,367.5 Z"/></g>
<g><path style="opacity:1" fill="#2f2d2f" d="M 818.5,397.5 C 821.247,397.187 823.914,397.52 826.5,398.5C 787.396,402.576 753.396,417.743 724.5,444C 723.5,444.667 722.5,444.667 721.5,444C 748.932,418.284 781.265,402.784 818.5,397.5 Z"/></g>
<g><path style="opacity:1" fill="#24201d" d="M 987.5,415.5 C 994.268,415.332 997.102,418.665 996,425.5C 993.008,431.596 989.675,431.93 986,426.5C 985.112,422.598 985.612,418.931 987.5,415.5 Z"/></g>
<g><path style="opacity:1" fill="#25211e" d="M 929.5,415.5 C 937.07,416.294 939.236,420.294 936,427.5C 932.477,431.701 929.477,431.368 927,426.5C 925.812,422.259 926.645,418.592 929.5,415.5 Z"/></g>
<g><path style="opacity:1" fill="#342824" d="M 1062.5,409.5 C 1064.6,409.201 1066.6,409.534 1068.5,410.5C 1057,411.842 1049.67,418.009 1046.5,429C 1046.83,429.5 1047.17,430 1047.5,430.5C 1052.39,426.105 1057.73,425.438 1063.5,428.5C 1050.77,426.719 1044.27,432.385 1044,445.5C 1041.84,433.311 1045,422.811 1053.5,414C 1056.44,412.199 1059.44,410.699 1062.5,409.5 Z"/></g>
<g><path style="opacity:1" fill="#2e2723" d="M 858.5,406.5 C 872.925,407.423 881.092,415.09 883,429.5C 883.667,433.833 883.667,438.167 883,442.5C 882.779,429.438 876.279,423.771 863.5,425.5C 870.393,421.956 876.226,423.289 881,429.5C 880.361,422.395 877.195,416.562 871.5,412C 866.883,410.296 862.549,408.463 858.5,406.5 Z"/></g>
<g><path style="opacity:1" fill="#322723" d="M 953.5,409.5 C 954.931,409.881 955.764,410.881 956,412.5C 956.995,417.305 957.829,422.139 958.5,427C 957.337,432.187 954.504,436.353 950,439.5C 949.333,442.167 949.333,444.833 950,447.5C 952.488,449.743 955.154,451.743 958,453.5C 958.688,454.332 958.521,454.998 957.5,455.5C 954.528,453.694 951.695,451.694 949,449.5C 947.517,446.298 947.183,442.964 948,439.5C 950.667,436.167 953.333,432.833 956,429.5C 956.058,422.735 955.224,416.068 953.5,409.5 Z"/></g>
<g><path style="opacity:1" fill="#2e2724" d="M 526.5,460.5 C 527.976,462.663 527.643,463.329 525.5,462.5C 516.333,441.5 507.167,420.5 498,399.5C 496.207,396.705 494.04,394.205 491.5,392C 477.05,383.866 465.05,386.533 455.5,400C 466.172,399.035 475.005,402.535 482,410.5C 493.407,432.313 504.574,454.313 515.5,476.5C 515.167,476.833 514.833,477.167 514.5,477.5C 503.156,456.814 492.323,435.814 482,414.5C 475.116,404.423 465.616,400.589 453.5,403C 438.275,410.285 433.775,421.785 440,437.5C 444.043,433.123 448.876,429.956 454.5,428C 466.125,426.202 475.291,430.035 482,439.5C 491.558,460.033 501.392,480.366 511.5,500.5C 510.726,501.711 509.893,501.711 509,500.5C 499.093,480.35 489.426,460.016 480,439.5C 476.211,434.692 471.378,431.525 465.5,430C 446.293,429.207 437.126,438.374 438,457.5C 442.805,469.581 447.805,481.581 453,493.5C 453.899,486.203 457.066,480.036 462.5,475C 474.486,468.197 485.32,469.697 495,479.5C 502.246,494.824 509.079,510.324 515.5,526C 515.167,526.5 514.833,527 514.5,527.5C 507.35,511.864 500.183,496.197 493,480.5C 488.239,475.537 482.405,472.87 475.5,472.5C 460.801,475.031 454.301,483.697 456,498.5C 462.607,514.162 469.107,529.829 475.5,545.5C 474.624,545.631 473.957,545.298 473.5,544.5C 460.449,515.733 447.949,486.733 436,457.5C 434.919,451.379 435.753,445.546 438.5,440C 431.082,422.249 435.915,409.082 453,400.5C 455.075,396.421 457.908,392.921 461.5,390C 475.101,382.645 487.268,384.478 498,395.5C 507.798,417.072 517.298,438.738 526.5,460.5 Z"/></g>
<g><path style="opacity:1" fill="#fefefe" d="M 1070.5,442.5 C 1112.06,441.24 1147.72,455.073 1177.5,484C 1176.75,484.671 1176.41,485.504 1176.5,486.5C 1162.97,529.901 1149.14,573.234 1135,616.5C 1132.58,602.163 1130.08,587.83 1127.5,573.5C 1127.17,574.833 1126.83,576.167 1126.5,577.5C 1132.49,612.748 1137.82,648.081 1142.5,683.5C 1158.67,786.827 1175,890.16 1191.5,993.5C 1049.83,993.5 908.167,993.5 766.5,993.5C 766.917,984.833 767.417,976.166 768,967.5C 778.705,869.886 788.872,772.219 798.5,674.5C 800.426,669.94 801.593,664.94 802,659.5C 805.004,635.158 807.671,610.824 810,586.5C 808.883,587.949 808.216,589.616 808,591.5C 806.608,603.882 804.941,616.215 803,628.5C 787.647,583.44 772.48,538.274 757.5,493C 757.164,491.97 756.497,491.47 755.5,491.5C 781.061,461.222 813.894,445.888 854,445.5C 856.61,445.467 858.777,444.8 860.5,443.5C 862.479,447.03 864.312,450.696 866,454.5C 873.982,461.473 881.482,461.14 888.5,453.5C 892.408,458.314 896.075,463.314 899.5,468.5C 900.555,497.452 914.222,517.952 940.5,530C 969.211,539.114 994.044,532.947 1015,511.5C 1025.02,498.948 1030.18,484.615 1030.5,468.5C 1034.09,463.643 1037.42,458.643 1040.5,453.5C 1040.43,453.062 1040.6,452.728 1041,452.5C 1049.24,461.814 1057.57,461.814 1066,452.5C 1066.84,448.771 1068.34,445.437 1070.5,442.5 Z"/></g>
<g><path style="opacity:1" fill="#2f2724" d="M 1498.5,551.5 C 1497.4,552.6 1496.06,553.267 1494.5,553.5C 1505.14,539.344 1515.64,525.01 1526,510.5C 1526.82,507.893 1527.32,505.226 1527.5,502.5C 1522.89,483.364 1511.56,477.864 1493.5,486C 1482.66,499.67 1471.66,513.17 1460.5,526.5C 1459.48,525.998 1459.31,525.332 1460,524.5C 1469.91,512.348 1479.57,500.015 1489,487.5C 1492.11,484.694 1495.61,482.527 1499.5,481C 1518.46,478.961 1528.63,487.461 1530,506.5C 1537.72,497.117 1545.05,487.451 1552,477.5C 1553.46,471.903 1553.79,466.237 1553,460.5C 1546.73,447.449 1536.57,442.616 1522.5,446C 1517.08,449.419 1512.24,453.585 1508,458.5C 1495.87,472.964 1483.37,487.13 1470.5,501C 1469.67,501.688 1469,501.521 1468.5,500.5C 1481.52,485.981 1494.35,471.315 1507,456.5C 1523.98,437.281 1539.98,437.948 1555,458.5C 1556.57,457.016 1557.91,455.349 1559,453.5C 1564.13,441.363 1561.97,430.863 1552.5,422C 1540.75,415.128 1529.92,416.295 1520,425.5C 1504.04,444.463 1487.71,463.129 1471,481.5C 1470.83,481.167 1470.67,480.833 1470.5,480.5C 1486.98,460.853 1503.65,441.353 1520.5,422C 1529.3,415.205 1538.97,413.705 1549.5,417.5C 1547.93,409.426 1543.26,403.926 1535.5,401C 1524.25,397.112 1514.75,399.612 1507,408.5C 1493.67,425.833 1480.33,443.167 1467,460.5C 1466.11,461.711 1465.27,461.711 1464.5,460.5C 1465.19,459.482 1465.86,458.482 1466.5,457.5C 1479.83,440.662 1493,423.662 1506,406.5C 1517.53,395.806 1530.03,394.639 1543.5,403C 1548.13,407.616 1550.96,413.116 1552,419.5C 1562.37,426.926 1566.04,436.926 1563,449.5C 1561.42,453.675 1559.08,457.341 1556,460.5C 1556.54,468.69 1554.87,476.357 1551,483.5C 1532.88,505.776 1515.38,528.443 1498.5,551.5 Z"/></g>
<g><path style="opacity:1" fill="#312824" d="M 1040.5,453.5 C 1037.42,458.643 1034.09,463.643 1030.5,468.5C 1001.86,495.408 968.859,502.575 931.5,490C 919.597,484.558 908.93,477.391 899.5,468.5C 896.075,463.314 892.408,458.314 888.5,453.5C 888.783,452.711 889.283,452.044 890,451.5C 907.598,478.889 932.765,493.222 965.5,494.5C 996.137,493.605 1019.97,480.605 1037,455.5C 1037.82,454.177 1038.98,453.511 1040.5,453.5 Z"/></g>
<g><path style="opacity:1" fill="#fd9491" d="M 899.5,468.5 C 908.93,477.391 919.597,484.558 931.5,490C 968.859,502.575 1001.86,495.408 1030.5,468.5C 1030.18,484.615 1025.02,498.948 1015,511.5C 994.044,532.947 969.211,539.114 940.5,530C 914.222,517.952 900.555,497.452 899.5,468.5 Z"/></g>
<g><path style="opacity:1" fill="#2c2520" d="M 958.5,468.5 C 963.157,467.994 967.49,468.827 971.5,471C 967.199,470.637 962.866,470.637 958.5,471C 956.695,471.972 955.028,473.139 953.5,474.5C 952.479,473.998 952.312,473.332 953,472.5C 954.812,471.023 956.645,469.69 958.5,468.5 Z"/></g>
<g><path style="opacity:1" fill="#2f2623" d="M 1413.5,447.5 C 1414.17,448.833 1415.17,449.833 1416.5,450.5C 1420.55,453.384 1423.72,457.051 1426,461.5C 1432.97,477.362 1431.31,492.362 1421,506.5C 1420.11,507.711 1419.27,507.711 1418.5,506.5C 1422.72,500.724 1425.89,494.391 1428,487.5C 1430.44,471.482 1425.11,458.816 1412,449.5C 1411.47,448.184 1411.97,447.517 1413.5,447.5 Z"/></g>
<g><path style="opacity:1" fill="#fefefe" d="M 1178.5,486.5 C 1179.5,486.414 1180.33,486.748 1181,487.5C 1208.84,516.836 1236.68,545.836 1264.5,574.5C 1237.09,618.972 1209.93,663.639 1183,708.5C 1174.88,725.651 1172.05,743.651 1174.5,762.5C 1164.05,737.056 1154.05,711.39 1144.5,685.5C 1141.8,663.768 1138.97,642.101 1136,620.5C 1149.87,575.713 1164.04,531.046 1178.5,486.5 Z"/></g>
<g><path style="opacity:1" fill="#fefefe" d="M 755.5,493.5 C 771.089,539.768 786.589,586.102 802,632.5C 801.496,645.54 800.33,658.54 798.5,671.5C 779.088,719.905 758.755,767.905 737.5,815.5C 740.679,801.597 741.179,787.597 739,773.5C 719.01,708.538 699.177,643.538 679.5,578.5C 680.412,576.405 681.579,574.405 683,572.5C 706.862,546.572 730.362,520.405 753.5,494C 754.094,493.536 754.761,493.369 755.5,493.5 Z"/></g>
<g><path style="opacity:1" fill="#2e2622" d="M 579.5,463.5 C 579.833,463.5 580.167,463.5 580.5,463.5C 581.043,463.56 581.376,463.893 581.5,464.5C 579.476,466.69 577.643,469.023 576,471.5C 568.317,488.036 568.817,504.369 577.5,520.5C 577.167,520.833 576.833,521.167 576.5,521.5C 573.139,515.933 570.639,509.933 569,503.5C 565.955,488.34 569.455,475.007 579.5,463.5 Z"/></g>
<g><path style="opacity:1" fill="#e8dffe" d="M 1498.5,551.5 C 1605.76,616.264 1680.6,707.597 1723,825.5C 1755.31,923.91 1759.31,1023.58 1735,1124.5C 1713.16,1204.06 1675.32,1274.73 1621.5,1336.5C 1592.46,1374.23 1569.29,1415.56 1552,1460.5C 1542.37,1497.04 1532.37,1533.38 1522,1569.5C 1497.33,1642.91 1460.16,1709.24 1410.5,1768.5C 1408.59,1768.78 1406.92,1768.45 1405.5,1767.5C 1405.66,1765.47 1405.5,1763.47 1405,1761.5C 1402.17,1759.17 1399.01,1757.5 1395.5,1756.5C 1359.66,1740.32 1323.66,1724.32 1287.5,1708.5C 1289.99,1704.86 1292.49,1701.2 1295,1697.5C 1295.69,1696.67 1295.52,1696 1294.5,1695.5C 1291.5,1699.49 1288.5,1703.49 1285.5,1707.5C 1278.27,1705.22 1271.6,1701.89 1265.5,1697.5C 1268.81,1692.52 1272.14,1687.52 1275.5,1682.5C 1274.13,1681.41 1272.97,1681.74 1272,1683.5C 1269.39,1687.74 1266.56,1691.74 1263.5,1695.5C 1257.31,1689.81 1253.15,1682.81 1251,1674.5C 1249.84,1666.86 1249,1659.19 1248.5,1651.5C 1243.99,1614.52 1239.65,1577.52 1235.5,1540.5C 1226.72,1460.81 1217.72,1381.14 1208.5,1301.5C 1212.16,1286.35 1217.33,1271.69 1224,1257.5C 1227.19,1246.37 1228.19,1235.03 1227,1223.5C 1225.67,1215.51 1224.5,1207.51 1223.5,1199.5C 1212.83,1131.81 1202.16,1064.14 1191.5,996.5C 1191.5,995.833 1191.5,995.167 1191.5,994.5C 1191.5,994.167 1191.5,993.833 1191.5,993.5C 1175,890.16 1158.67,786.827 1142.5,683.5C 1143.17,684.167 1143.83,684.833 1144.5,685.5C 1154.05,711.39 1164.05,737.056 1174.5,762.5C 1183.18,807.679 1210.18,834.846 1255.5,844C 1303.74,847.39 1337.91,827.224 1358,783.5C 1374.34,720.161 1390.67,656.828 1407,593.5C 1433.49,581.557 1460.33,570.39 1487.5,560C 1490.33,558.334 1492.66,556.168 1494.5,553.5C 1496.06,553.267 1497.4,552.6 1498.5,551.5 Z"/></g>
<g><path style="opacity:1" fill="#323230" d="M 755.5,491.5 C 756.497,491.47 757.164,491.97 757.5,493C 772.48,538.274 787.647,583.44 803,628.5C 804.941,616.215 806.608,603.882 808,591.5C 808.216,589.616 808.883,587.949 810,586.5C 807.671,610.824 805.004,635.158 802,659.5C 801.593,664.94 800.426,669.94 798.5,674.5C 798.5,673.5 798.5,672.5 798.5,671.5C 800.33,658.54 801.496,645.54 802,632.5C 786.589,586.102 771.089,539.768 755.5,493.5C 755.5,492.833 755.5,492.167 755.5,491.5 Z"/></g>
<g><path style="opacity:1" fill="#2f2f2e" d="M 1178.5,486.5 C 1164.04,531.046 1149.87,575.713 1136,620.5C 1138.97,642.101 1141.8,663.768 1144.5,685.5C 1143.83,684.833 1143.17,684.167 1142.5,683.5C 1137.82,648.081 1132.49,612.748 1126.5,577.5C 1126.83,576.167 1127.17,574.833 1127.5,573.5C 1130.08,587.83 1132.58,602.163 1135,616.5C 1149.14,573.234 1162.97,529.901 1176.5,486.5C 1177.4,485.494 1178.06,485.494 1178.5,486.5 Z"/></g>
<g><path style="opacity:1" fill="#1f3640" d="M 1191.5,994.5 C 1191.5,995.167 1191.5,995.833 1191.5,996.5C 1049.5,996.5 907.5,996.5 765.5,996.5C 907.163,994.502 1049.16,993.835 1191.5,994.5 Z"/></g>
<g><path style="opacity:1" fill="#02bcfe" d="M 765.5,996.5 C 907.5,996.5 1049.5,996.5 1191.5,996.5C 1202.16,1064.14 1212.83,1131.81 1223.5,1199.5C 1147.17,1199.5 1070.83,1199.5 994.5,1199.5C 987.896,1162.88 981.396,1126.21 975,1089.5C 971.146,1126.31 967.312,1162.98 963.5,1199.5C 890.5,1199.5 817.5,1199.5 744.5,1199.5C 750.851,1131.62 757.851,1063.96 765.5,996.5 Z"/></g>
<g><path style="opacity:1" fill="#e8dffe" d="M 994.5,1199.5 C 1014.5,1313.17 1034.5,1426.84 1054.5,1540.5C 1064.18,1594.6 1073.85,1648.6 1083.5,1702.5C 1086.13,1720.57 1089.13,1738.57 1092.5,1756.5C 1093.01,1760.56 1093.67,1764.56 1094.5,1768.5C 1032.33,1768.83 970.331,1768.5 908.5,1767.5C 908.5,1764.17 908.5,1760.83 908.5,1757.5C 908.5,1757.17 908.5,1756.83 908.5,1756.5C 910.81,1738.67 912.81,1720.67 914.5,1702.5C 919.438,1648.45 924.772,1594.45 930.5,1540.5C 941.754,1426.87 952.754,1313.21 963.5,1199.5C 967.312,1162.98 971.146,1126.31 975,1089.5C 981.396,1126.21 987.896,1162.88 994.5,1199.5 Z"/></g>
<g><path style="opacity:1" fill="#fe9492" d="M 744.5,1199.5 C 817.5,1199.5 890.5,1199.5 963.5,1199.5C 952.754,1313.21 941.754,1426.87 930.5,1540.5C 876.167,1540.5 821.833,1540.5 767.5,1540.5C 768.076,1463.17 768.243,1385.83 768,1308.5C 759.172,1291.18 751.172,1273.51 744,1255.5C 740.668,1236.81 740.834,1218.14 744.5,1199.5 Z"/></g>
<g><path style="opacity:1" fill="#fe9492" d="M 994.5,1199.5 C 1070.83,1199.5 1147.17,1199.5 1223.5,1199.5C 1224.5,1207.51 1225.67,1215.51 1227,1223.5C 1228.19,1235.03 1227.19,1246.37 1224,1257.5C 1217.33,1271.69 1212.16,1286.35 1208.5,1301.5C 1217.72,1381.14 1226.72,1460.81 1235.5,1540.5C 1175.17,1540.5 1114.83,1540.5 1054.5,1540.5C 1034.5,1426.84 1014.5,1313.17 994.5,1199.5 Z"/></g>
<g><path style="opacity:1" fill="#8250fe" d="M 767.5,1540.5 C 821.833,1540.5 876.167,1540.5 930.5,1540.5C 924.772,1594.45 919.438,1648.45 914.5,1702.5C 870.832,1702.67 827.165,1702.5 783.5,1702C 789.93,1684.28 785.93,1669.28 771.5,1657C 769.922,1655.91 768.255,1655.07 766.5,1654.5C 766.513,1616.5 766.847,1578.5 767.5,1540.5 Z"/></g>
<g><path style="opacity:1" fill="#8250fe" d="M 1054.5,1540.5 C 1114.83,1540.5 1175.17,1540.5 1235.5,1540.5C 1239.65,1577.52 1243.99,1614.52 1248.5,1651.5C 1228.47,1659.39 1219.97,1674.05 1223,1695.5C 1223.98,1697.74 1224.48,1700.07 1224.5,1702.5C 1177.5,1702.5 1130.5,1702.5 1083.5,1702.5C 1073.85,1648.6 1064.18,1594.6 1054.5,1540.5 Z"/></g>
<g><path style="opacity:1" fill="#feaf3d" d="M 1248.5,1651.5 C 1249,1659.19 1249.84,1666.86 1251,1674.5C 1253.15,1682.81 1257.31,1689.81 1263.5,1695.5C 1258.61,1703.74 1253.28,1711.74 1247.5,1719.5C 1248.27,1720.71 1249.11,1720.71 1250,1719.5C 1254.94,1711.92 1260.11,1704.59 1265.5,1697.5C 1271.6,1701.89 1278.27,1705.22 1285.5,1707.5C 1279.68,1715.8 1273.84,1724.14 1268,1732.5C 1267.31,1733.33 1267.48,1734 1268.5,1734.5C 1275.33,1726.16 1281.66,1717.49 1287.5,1708.5C 1323.66,1724.32 1359.66,1740.32 1395.5,1756.5C 1294.5,1756.5 1193.5,1756.5 1092.5,1756.5C 1089.13,1738.57 1086.13,1720.57 1083.5,1702.5C 1130.5,1702.5 1177.5,1702.5 1224.5,1702.5C 1224.48,1700.07 1223.98,1697.74 1223,1695.5C 1219.97,1674.05 1228.47,1659.39 1248.5,1651.5 Z"/></g>
<g><path style="opacity:1" fill="#feaf3d" d="M 766.5,1654.5 C 768.255,1655.07 769.922,1655.91 771.5,1657C 785.93,1669.28 789.93,1684.28 783.5,1702C 827.165,1702.5 870.832,1702.67 914.5,1702.5C 912.81,1720.67 910.81,1738.67 908.5,1756.5C 815.998,1756.83 723.665,1756.5 631.5,1755.5C 662.803,1740.85 694.136,1726.18 725.5,1711.5C 730.49,1718.8 735.49,1726.14 740.5,1733.5C 741.365,1734.58 742.365,1734.75 743.5,1734C 738.033,1726.22 732.7,1718.39 727.5,1710.5C 734.162,1707.5 740.828,1704.5 747.5,1701.5C 752.313,1707.76 757.146,1714.1 762,1720.5C 762.667,1719.5 762.667,1718.5 762,1717.5C 757.577,1711.65 753.41,1705.65 749.5,1699.5C 753.402,1697.11 756.902,1694.11 760,1690.5C 765.996,1679.26 768.162,1667.26 766.5,1654.5 Z"/></g>
<g><path style="opacity:1" fill="#2f2922" d="M 749.5,1699.5 C 753.41,1705.65 757.577,1711.65 762,1717.5C 762.667,1718.5 762.667,1719.5 762,1720.5C 757.146,1714.1 752.313,1707.76 747.5,1701.5C 743.917,1695.4 740.083,1689.4 736,1683.5C 735.312,1682.67 735.479,1682 736.5,1681.5C 740.831,1687.49 745.164,1693.49 749.5,1699.5 Z"/></g>
<g><path style="opacity:1" fill="#2d2820" d="M 1265.5,1697.5 C 1260.11,1704.59 1254.94,1711.92 1250,1719.5C 1249.11,1720.71 1248.27,1720.71 1247.5,1719.5C 1253.28,1711.74 1258.61,1703.74 1263.5,1695.5C 1266.56,1691.74 1269.39,1687.74 1272,1683.5C 1272.97,1681.74 1274.13,1681.41 1275.5,1682.5C 1272.14,1687.52 1268.81,1692.52 1265.5,1697.5 Z"/></g>
<g><path style="opacity:1" fill="#2e2820" d="M 727.5,1710.5 C 732.7,1718.39 738.033,1726.22 743.5,1734C 742.365,1734.75 741.365,1734.58 740.5,1733.5C 735.49,1726.14 730.49,1718.8 725.5,1711.5C 722.497,1707.66 719.664,1703.66 717,1699.5C 715.759,1698.12 715.592,1696.79 716.5,1695.5C 720.432,1700.39 724.099,1705.39 727.5,1710.5 Z"/></g>
<g><path style="opacity:1" fill="#2f2820" d="M 1287.5,1708.5 C 1281.66,1717.49 1275.33,1726.16 1268.5,1734.5C 1267.48,1734 1267.31,1733.33 1268,1732.5C 1273.84,1724.14 1279.68,1715.8 1285.5,1707.5C 1288.5,1703.49 1291.5,1699.49 1294.5,1695.5C 1295.52,1696 1295.69,1696.67 1295,1697.5C 1292.49,1701.2 1289.99,1704.86 1287.5,1708.5 Z"/></g>
<g><path style="opacity:1" fill="#9dac3b" d="M 631.5,1755.5 C 723.665,1756.5 815.998,1756.83 908.5,1756.5C 908.5,1756.83 908.5,1757.17 908.5,1757.5C 815.167,1757.5 721.833,1757.5 628.5,1757.5C 629.29,1756.6 630.29,1755.93 631.5,1755.5 Z"/></g>
<g><path style="opacity:1" fill="#38aa3e" d="M 628.5,1757.5 C 721.833,1757.5 815.167,1757.5 908.5,1757.5C 908.5,1760.83 908.5,1764.17 908.5,1767.5C 907.833,1767.5 907.5,1767.83 907.5,1768.5C 813.096,1768.83 718.763,1768.5 624.5,1767.5C 622.32,1762.76 623.653,1759.43 628.5,1757.5 Z"/></g>
<g><path style="opacity:1" fill="#43a73d" d="M 1092.5,1756.5 C 1193.5,1756.5 1294.5,1756.5 1395.5,1756.5C 1399.01,1757.5 1402.17,1759.17 1405,1761.5C 1405.5,1763.47 1405.66,1765.47 1405.5,1767.5C 1404.66,1767.84 1404.33,1768.51 1404.5,1769.5C 1301.17,1769.5 1197.83,1769.5 1094.5,1769.5C 1094.5,1769.17 1094.5,1768.83 1094.5,1768.5C 1093.67,1764.56 1093.01,1760.56 1092.5,1756.5 Z"/></g>
<g><path style="opacity:1" fill="#328734" d="M 624.5,1767.5 C 718.763,1768.5 813.096,1768.83 907.5,1768.5C 907.5,1768.83 907.5,1769.17 907.5,1769.5C 813.167,1769.5 718.833,1769.5 624.5,1769.5C 624.5,1768.83 624.5,1768.17 624.5,1767.5 Z"/></g>
<g><path style="opacity:1" fill="#b3afc0" d="M 908.5,1767.5 C 970.331,1768.5 1032.33,1768.83 1094.5,1768.5C 1094.5,1768.83 1094.5,1769.17 1094.5,1769.5C 1032.17,1769.5 969.833,1769.5 907.5,1769.5C 907.5,1769.17 907.5,1768.83 907.5,1768.5C 907.5,1767.83 907.833,1767.5 908.5,1767.5 Z"/></g>
<g><path style="opacity:1" fill="#c5c5c5" d="M 1405.5,1767.5 C 1406.92,1768.45 1408.59,1768.78 1410.5,1768.5C 1495.67,1768.17 1580.67,1768.5 1665.5,1769.5C 1578.5,1769.5 1491.5,1769.5 1404.5,1769.5C 1404.33,1768.51 1404.66,1767.84 1405.5,1767.5 Z"/></g>
<g><path style="opacity:1" fill="#1d1d1b" d="M 300.5,1769.5 C 408.5,1769.5 516.5,1769.5 624.5,1769.5C 718.833,1769.5 813.167,1769.5 907.5,1769.5C 969.833,1769.5 1032.17,1769.5 1094.5,1769.5C 1197.83,1769.5 1301.17,1769.5 1404.5,1769.5C 1491.5,1769.5 1578.5,1769.5 1665.5,1769.5C 1665.5,1770.83 1665.5,1772.17 1665.5,1773.5C 1210.5,1773.5 755.5,1773.5 300.5,1773.5C 300.5,1772.17 300.5,1770.83 300.5,1769.5 Z"/></g>
</svg>
