<?xml version="1.0" encoding="UTF-8"?>
<!DOCTYPE svg PUBLIC "-//W3C//DTD SVG 1.1//EN" "http://www.w3.org/Graphics/SVG/1.1/DTD/svg11.dtd">
<svg xmlns="http://www.w3.org/2000/svg" version="1.1" width="6251px" height="4168px" style="shape-rendering:geometricPrecision; text-rendering:geometricPrecision; image-rendering:optimizeQuality; fill-rule:evenodd; clip-rule:evenodd" xmlns:xlink="http://www.w3.org/1999/xlink">
<g><path style="opacity:1" fill="#fefefe" d="M -0.5,-0.5 C 2083.17,-0.5 4166.83,-0.5 6250.5,-0.5C 6250.5,1388.83 6250.5,2778.17 6250.5,4167.5C 4166.83,4167.5 2083.17,4167.5 -0.5,4167.5C -0.5,2778.17 -0.5,1388.83 -0.5,-0.5 Z"/></g>
<g><path style="opacity:1" fill="#c6eae9" d="M 2640.5,459.5 C 2641.5,459.414 2642.33,459.748 2643,460.5C 2657.09,489.511 2675.25,515.677 2697.5,539C 2694.83,539.333 2692.17,539.667 2689.5,540C 2683.83,543.167 2678.17,546.333 2672.5,549.5C 2660.75,538.636 2649.91,526.969 2640,514.5C 2631.58,502.655 2622.91,490.988 2614,479.5C 2611.94,476.714 2610.44,473.714 2609.5,470.5C 2620.85,469.385 2631.18,465.719 2640.5,459.5 Z"/></g>
<g><path style="opacity:1" fill="#718dd5" d="M 3097.5,489.5 C 3098.75,489.577 3099.58,490.244 3100,491.5C 3101.81,500.111 3105.47,507.778 3111,514.5C 3111.67,515.5 3111.67,516.5 3111,517.5C 3092.6,534.906 3077.6,554.906 3066,577.5C 3065.67,575.167 3065.33,572.833 3065,570.5C 3062.33,566.5 3059.67,562.5 3057,558.5C 3056.33,556.833 3056.33,555.167 3057,553.5C 3061.75,544.339 3066.75,535.339 3072,526.5C 3080.52,514.109 3089.02,501.776 3097.5,489.5 Z"/></g>
<g><path style="opacity:1" fill="#ee6e58" d="M 2215.5,549.5 C 2216.24,549.369 2216.91,549.536 2217.5,550C 2215.68,551.8 2214.52,553.966 2214,556.5C 2213.82,566.077 2213.32,575.577 2212.5,585C 2199.64,592.097 2186.31,598.097 2172.5,603C 2152.7,609.405 2132.87,615.572 2113,621.5C 2114.84,612.944 2116.51,604.277 2118,595.5C 2118.31,589.072 2118.47,582.739 2118.5,576.5C 2152.6,573.561 2184.93,564.561 2215.5,549.5 Z"/></g>
<g><path style="opacity:1" fill="#c6eaea" d="M 1444.5,662.5 C 1444.92,661.876 1445.58,661.543 1446.5,661.5C 1473.8,668.346 1501.46,670.346 1529.5,667.5C 1529.83,679.82 1532.83,691.486 1538.5,702.5C 1509.69,702.019 1481.36,697.852 1453.5,690C 1452.33,689.5 1451.5,688.667 1451,687.5C 1450.13,680.807 1449.13,674.14 1448,667.5C 1447.3,665.416 1446.14,663.749 1444.5,662.5 Z"/></g>
<g><path style="opacity:1" fill="#fad683" d="M 3681.5,735.5 C 3686.79,737.596 3691.45,740.763 3695.5,745C 3698.62,746.893 3701.95,748.226 3705.5,749C 3681.07,769.426 3660.23,792.926 3643,819.5C 3640.46,816.628 3637.63,814.128 3634.5,812C 3627.24,808.53 3619.91,805.364 3612.5,802.5C 3633.28,777.713 3656.28,755.379 3681.5,735.5 Z"/></g>
<g><path style="opacity:1" fill="#d2dffe" d="M 3276.5,755.5 C 3277.5,758.964 3279,762.297 3281,765.5C 3285.35,769.682 3289.52,774.015 3293.5,778.5C 3283.67,809.816 3270.84,839.816 3255,868.5C 3250.11,857.354 3243.27,847.687 3234.5,839.5C 3253.26,813.988 3267.26,785.988 3276.5,755.5 Z"/></g>
<g><path style="opacity:1" fill="#f9b384" d="M 2546.5,1021.5 C 2517.27,1006.06 2488.27,990.39 2459.5,974.5C 2465.4,964.163 2470.73,953.496 2475.5,942.5C 2476.12,942.611 2476.62,942.944 2477,943.5C 2486.2,931.132 2497.7,921.465 2511.5,914.5C 2501.36,908.928 2491.02,903.595 2480.5,898.5C 2474.13,884.015 2469.46,869.015 2466.5,853.5C 2474.76,852.744 2479.09,848.244 2479.5,840C 2477.08,826.907 2472.42,814.74 2465.5,803.5C 2469.25,795.664 2473.75,788.331 2479,781.5C 2510.64,795.264 2541.97,809.597 2573,824.5C 2577.7,853.363 2578.7,882.363 2576,911.5C 2574.38,921.252 2572.38,930.918 2570,940.5C 2561.07,967.212 2553.24,994.212 2546.5,1021.5 Z"/></g>
<g><path style="opacity:1" fill="#e28b6d" d="M 2465.5,803.5 C 2472.42,814.74 2477.08,826.907 2479.5,840C 2479.09,848.244 2474.76,852.744 2466.5,853.5C 2469.46,869.015 2474.13,884.015 2480.5,898.5C 2491.02,903.595 2501.36,908.928 2511.5,914.5C 2497.7,921.465 2486.2,931.132 2477,943.5C 2476.62,942.944 2476.12,942.611 2475.5,942.5C 2451.73,902.16 2439.89,858.493 2440,811.5C 2441.89,807.942 2444.73,805.442 2448.5,804C 2454.16,803.501 2459.82,803.334 2465.5,803.5 Z"/></g>
<g><path style="opacity:1" fill="#d3dffe" d="M 2122.5,815.5 C 2140.08,835.267 2154.75,857.267 2166.5,881.5C 2164.49,885.513 2161.99,889.18 2159,892.5C 2157.15,895.569 2156.15,898.902 2156,902.5C 2144.11,879.767 2128.94,859.433 2110.5,841.5C 2116.61,833.833 2120.61,825.166 2122.5,815.5 Z"/></g>
<g><path style="opacity:1" fill="#f5c7bf" d="M 2944.5,852.5 C 2945.24,852.369 2945.91,852.536 2946.5,853C 2943.89,854.938 2942.06,857.438 2941,860.5C 2940.52,864.531 2939.85,868.531 2939,872.5C 2937.93,873.191 2936.77,873.691 2935.5,874C 2904.39,879.473 2873.05,882.473 2841.5,883C 2848.04,875.753 2851.71,867.253 2852.5,857.5C 2883.52,859.803 2914.19,858.136 2944.5,852.5 Z"/></g>
<g><path style="opacity:1" fill="#f3f6fe" d="M 5181.5,2884.5 C 5181.5,2717.5 5181.5,2550.5 5181.5,2383.5C 5127.17,2383.5 5072.83,2383.5 5018.5,2383.5C 5008.88,2339.72 4983.88,2308.22 4943.5,2289C 4898.67,2271.44 4854.33,2272.44 4810.5,2292C 4774.02,2312.65 4750.02,2343.15 4738.5,2383.5C 4613.17,2383.5 4487.83,2383.5 4362.5,2383.5C 4361.43,2355.95 4348.76,2335.78 4324.5,2323C 4317.5,2319.78 4310.17,2317.78 4302.5,2317C 4269.5,2316.5 4236.5,2316.33 4203.5,2316.5C 4203.5,2281.17 4203.5,2245.83 4203.5,2210.5C 4204.5,2188.01 4204.83,2165.34 4204.5,2142.5C 4402.5,2142.5 4600.5,2142.5 4798.5,2142.5C 4798.83,1874 4798.5,1605.67 4797.5,1337.5C 4370.83,1337.5 3944.17,1337.5 3517.5,1337.5C 3517.5,1605.5 3517.5,1873.5 3517.5,2141.5C 3707.83,2141.5 3898.17,2141.5 4088.5,2141.5C 4088.5,2164.5 4088.5,2187.5 4088.5,2210.5C 4088.5,2245.83 4088.5,2281.17 4088.5,2316.5C 4054.83,2316.33 4021.17,2316.5 3987.5,2317C 3951.57,2324.76 3932.24,2346.92 3929.5,2383.5C 3806.83,2383.5 3684.17,2383.5 3561.5,2383.5C 3522.56,2347.88 3476.56,2328.38 3423.5,2325C 3401.83,2324.6 3380.16,2324.1 3358.5,2323.5C 3358.5,2284.5 3358.5,2245.5 3358.5,2206.5C 3372.83,2206.5 3387.17,2206.5 3401.5,2206.5C 3401.83,2172 3401.5,2137.66 3400.5,2103.5C 3250.17,2103.5 3099.83,2103.5 2949.5,2103.5C 2949.5,2137.83 2949.5,2172.17 2949.5,2206.5C 2963.83,2206.5 2978.17,2206.5 2992.5,2206.5C 2992.5,2265.5 2992.5,2324.5 2992.5,2383.5C 2935.83,2383.5 2879.17,2383.5 2822.5,2383.5C 2822.5,2822.83 2822.5,3262.17 2822.5,3701.5C 2643.5,3701.5 2464.5,3701.5 2285.5,3701.5C 2265.47,3681.14 2245.47,3660.81 2225.5,3640.5C 2224.83,3640.5 2224.5,3640.17 2224.5,3639.5C 2197.81,3612.47 2171.14,3585.47 2144.5,3558.5C 2153.34,3522.13 2162.34,3485.8 2171.5,3449.5C 2193.83,3449.5 2216.17,3449.5 2238.5,3449.5C 2277.36,3319.25 2317.03,3189.25 2357.5,3059.5C 2384.3,3068.77 2410.96,3078.43 2437.5,3088.5C 2437.83,3088.17 2438.17,3087.83 2438.5,3087.5C 2424.06,3056.29 2409.39,3025.29 2394.5,2994.5C 2393.83,2991.83 2393.17,2989.17 2392.5,2986.5C 2389.75,2981.84 2387.08,2977.01 2384.5,2972C 2385.25,2971.33 2385.59,2970.5 2385.5,2969.5C 2393.43,2942.22 2401.26,2914.89 2409,2887.5C 2413.45,2866.37 2416.28,2845.04 2417.5,2823.5C 2433.02,2828.06 2448.52,2832.73 2464,2837.5C 2464.83,2837.17 2465.67,2836.83 2466.5,2836.5C 2530.02,2698.8 2593.52,2561.14 2657,2423.5C 2675.62,2373.8 2678.62,2323.14 2666,2271.5C 2653.53,2224.01 2627.36,2186.17 2587.5,2158C 2578.94,2152.55 2569.94,2147.89 2560.5,2144C 2472.91,2107.53 2382.91,2079.03 2290.5,2058.5C 2278.86,2008.9 2264.19,1960.24 2246.5,1912.5C 2317.63,1909.12 2388.63,1903.95 2459.5,1897C 2530.8,1889.87 2600.8,1876.21 2669.5,1856C 2752.24,1829.63 2828.91,1791.63 2899.5,1742C 2949.2,1705.99 2996.86,1667.32 3042.5,1626C 3116.73,1555.11 3188.89,1482.27 3259,1407.5C 3308.03,1356.79 3358.53,1307.96 3410.5,1261C 3594.97,1098.91 3807.31,987.91 4047.5,928C 4253.53,879.553 4458.87,882.22 4663.5,936C 5021.44,1037.61 5264.94,1262.78 5394,1611.5C 5470.31,1829.22 5489.31,2051.89 5451,2279.5C 5412.33,2504.96 5322.49,2706.63 5181.5,2884.5 Z"/></g>
<g><path style="opacity:1" fill="#f5c7bf" d="M 1583.5,904.5 C 1586.78,905.809 1589.78,907.642 1592.5,910C 1615.17,928.667 1635.83,949.333 1654.5,972C 1643.48,975.007 1633.81,980.34 1625.5,988C 1624.83,988.667 1624.17,988.667 1623.5,988C 1606.46,961.282 1585.46,937.949 1560.5,918C 1563.58,917.654 1566.58,916.988 1569.5,916C 1574.42,912.387 1579.09,908.554 1583.5,904.5 Z"/></g>
<g><path style="opacity:1" fill="#1f3c88" d="M 2459.5,974.5 C 2488.27,990.39 2517.27,1006.06 2546.5,1021.5C 2554.97,1025.9 2563.3,1030.57 2571.5,1035.5C 2539.89,1112.38 2503.23,1186.71 2461.5,1258.5C 2450.93,1275.3 2440.6,1292.3 2430.5,1309.5C 2422.89,1302.69 2414.89,1296.36 2406.5,1290.5C 2402.69,1293.14 2399.02,1295.98 2395.5,1299C 2392.36,1300.69 2389.02,1301.86 2385.5,1302.5C 2396.49,1311.82 2406.82,1321.82 2416.5,1332.5C 2353.11,1431.19 2281.94,1524.19 2203,1611.5C 2181.27,1635.07 2158.43,1657.4 2134.5,1678.5C 2109.85,1638.91 2082.02,1601.58 2051,1566.5C 2041.91,1556.91 2032.41,1547.91 2022.5,1539.5C 2022.17,1538.83 2021.83,1538.17 2021.5,1537.5C 2021.8,1525.83 2022.13,1514.17 2022.5,1502.5C 2023.13,1496.86 2023.47,1491.19 2023.5,1485.5C 2106.47,1411.67 2189.47,1337.84 2272.5,1264C 2276.37,1260.47 2279.87,1256.63 2283,1252.5C 2295.18,1232.14 2307.34,1211.81 2319.5,1191.5C 2363.77,1118.05 2408.27,1044.72 2453,971.5C 2454.99,972.914 2457.16,973.914 2459.5,974.5 Z"/></g>
<g><path style="opacity:1" fill="#fad784" d="M 1881.5,972.5 C 1883.93,977.613 1886.1,982.946 1888,988.5C 1889.42,991.009 1891.09,993.343 1893,995.5C 1893.67,996.5 1893.67,997.5 1893,998.5C 1876.98,1014.18 1863.64,1031.85 1853,1051.5C 1852.71,1049.05 1852.04,1046.71 1851,1044.5C 1847.3,1040.75 1844.96,1036.42 1844,1031.5C 1849.16,1021.18 1854.83,1011.18 1861,1001.5C 1868.05,991.954 1874.89,982.287 1881.5,972.5 Z"/></g>
<g><path style="opacity:1" fill="#112049" d="M 2185.5,1189.5 C 2173.6,1200.8 2159.93,1209.63 2144.5,1216C 2133.31,1220.01 2121.98,1223.51 2110.5,1226.5C 2070.24,1234.51 2030.91,1231.34 1992.5,1217C 1975.09,1209.57 1959.26,1199.74 1945,1187.5C 1920.57,1197.95 1905.57,1216.28 1900,1242.5C 1888.3,1237.74 1876.14,1236.24 1863.5,1238C 1858.23,1239.31 1853.23,1241.14 1848.5,1243.5C 1841.48,1226.48 1837.15,1208.81 1835.5,1190.5C 1836.2,1165.6 1846.53,1145.77 1866.5,1131C 1874.84,1124.51 1883.84,1119.01 1893.5,1114.5C 1903,1088.17 1921.34,1071.33 1948.5,1064C 1997.25,1052.23 2041.92,1060.9 2082.5,1090C 2087.67,1095.17 2092.83,1100.33 2098,1105.5C 2107.37,1120.55 2116.37,1135.89 2125,1151.5C 2140.76,1171.13 2160.92,1183.8 2185.5,1189.5 Z"/></g>
<g><path style="opacity:1" fill="#f5c7bf" d="M 2969.5,1067.5 C 2979.05,1073.94 2989.39,1078.78 3000.5,1082C 2991.06,1097.77 2981.23,1113.27 2971,1128.5C 2965.36,1135.97 2959.2,1142.97 2952.5,1149.5C 2947.66,1146.58 2942.99,1143.41 2938.5,1140C 2935.64,1138.6 2932.64,1137.6 2929.5,1137C 2947.59,1116.67 2960.92,1093.5 2969.5,1067.5 Z"/></g>
<g><path style="opacity:1" fill="#ee6f58" d="M 3523.5,1044.5 C 3526.21,1052.59 3530.05,1060.26 3535,1067.5C 3535.67,1068.5 3535.67,1069.5 3535,1070.5C 3518.53,1085.76 3505.2,1103.43 3495,1123.5C 3493.74,1116.91 3490.74,1111.24 3486,1106.5C 3485.33,1105.5 3485.33,1104.5 3486,1103.5C 3497.01,1082.79 3509.51,1063.12 3523.5,1044.5 Z"/></g>
<g><path style="opacity:1" fill="#728dd5" d="M 1138.5,1129.5 C 1153.52,1147.16 1166.35,1166.49 1177,1187.5C 1177.67,1188.83 1177.67,1190.17 1177,1191.5C 1172.96,1196.25 1169.96,1201.58 1168,1207.5C 1157.18,1187.53 1143.68,1169.53 1127.5,1153.5C 1133.09,1146.41 1136.75,1138.41 1138.5,1129.5 Z"/></g>
<g><path style="opacity:1" fill="#f3f6fe" d="M 2319.5,1191.5 C 2307.34,1211.81 2295.18,1232.14 2283,1252.5C 2279.87,1256.63 2276.37,1260.47 2272.5,1264C 2189.47,1337.84 2106.47,1411.67 2023.5,1485.5C 2023.5,1479.83 2023.5,1474.17 2023.5,1468.5C 2024.5,1450.67 2024.83,1432.67 2024.5,1414.5C 2051.36,1408.98 2072.19,1394.65 2087,1371.5C 2091.65,1363.2 2095.49,1354.53 2098.5,1345.5C 2104.18,1328.44 2106.51,1310.77 2105.5,1292.5C 2104.7,1283.18 2104.54,1273.84 2105,1264.5C 2107.45,1251.92 2109.29,1239.25 2110.5,1226.5C 2121.98,1223.51 2133.31,1220.01 2144.5,1216C 2159.93,1209.63 2173.6,1200.8 2185.5,1189.5C 2230.29,1181.21 2274.96,1181.88 2319.5,1191.5 Z"/></g>
<g><path style="opacity:1" fill="#f9b284" d="M 2110.5,1226.5 C 2109.29,1239.25 2107.45,1251.92 2105,1264.5C 2104.54,1273.84 2104.7,1283.18 2105.5,1292.5C 2082.97,1286.6 2069.64,1295.1 2065.5,1318C 2068.22,1337.22 2079.22,1346.39 2098.5,1345.5C 2095.49,1354.53 2091.65,1363.2 2087,1371.5C 2072.19,1394.65 2051.36,1408.98 2024.5,1414.5C 2024.83,1432.67 2024.5,1450.67 2023.5,1468.5C 2023.5,1450.83 2023.5,1433.17 2023.5,1415.5C 1995.9,1419.02 1970.23,1413.52 1946.5,1399C 1931.47,1388.97 1917.97,1377.14 1906,1363.5C 1922.01,1415.32 1952.51,1456.49 1997.5,1487C 2005.53,1492.68 2013.86,1497.85 2022.5,1502.5C 2022.13,1514.17 2021.8,1525.83 2021.5,1537.5C 2007.82,1550.51 1991.48,1555.68 1972.5,1553C 1958.02,1551.17 1944.02,1547.51 1930.5,1542C 1895.93,1527.06 1863.59,1508.56 1833.5,1486.5C 1832.5,1485.83 1831.5,1485.17 1830.5,1484.5C 1838.41,1463.87 1845.24,1442.87 1851,1421.5C 1858.42,1390.97 1865.92,1360.47 1873.5,1330C 1873.17,1329.17 1872.83,1328.33 1872.5,1327.5C 1851.12,1316.12 1838.78,1298.46 1835.5,1274.5C 1835.42,1266.98 1837.25,1259.98 1841,1253.5C 1843.74,1250.27 1846.24,1246.94 1848.5,1243.5C 1853.23,1241.14 1858.23,1239.31 1863.5,1238C 1876.14,1236.24 1888.3,1237.74 1900,1242.5C 1905.57,1216.28 1920.57,1197.95 1945,1187.5C 1959.26,1199.74 1975.09,1209.57 1992.5,1217C 2030.91,1231.34 2070.24,1234.51 2110.5,1226.5 Z"/></g>
<g><path style="opacity:1" fill="#fbd784" d="M 1489.5,1197.5 C 1503.01,1224.33 1520.34,1248.5 1541.5,1270C 1538.5,1270.33 1535.5,1270.67 1532.5,1271C 1528.5,1273.33 1524.5,1275.67 1520.5,1278C 1519.17,1278.67 1517.83,1278.67 1516.5,1278C 1495.44,1256.83 1476.77,1233.83 1460.5,1209C 1467.95,1207.51 1475.28,1205.51 1482.5,1203C 1485.27,1201.63 1487.6,1199.8 1489.5,1197.5 Z"/></g>
<g><path style="opacity:1" fill="#172249" d="M 1979.5,1233.5 C 1989,1232 1993.33,1236 1992.5,1245.5C 1992.12,1254.13 1989.46,1261.96 1984.5,1269C 1977.33,1273.49 1972.49,1271.66 1970,1263.5C 1968.49,1254.22 1970.15,1245.55 1975,1237.5C 1976.4,1235.93 1977.9,1234.6 1979.5,1233.5 Z"/></g>
<g><path style="opacity:1" fill="#152249" d="M 2064.5,1241.5 C 2073.53,1240.7 2077.87,1244.86 2077.5,1254C 2077.27,1262.07 2075.11,1269.57 2071,1276.5C 2064.14,1281.42 2059.48,1279.75 2057,1271.5C 2056.31,1264.58 2056.81,1257.75 2058.5,1251C 2059.63,1247.23 2061.63,1244.06 2064.5,1241.5 Z"/></g>
<g><path style="opacity:1" fill="#e28c6d" d="M 1857.5,1257.5 C 1879.41,1255.93 1891.75,1265.93 1894.5,1287.5C 1893.32,1287.72 1892.32,1287.39 1891.5,1286.5C 1885.67,1270.08 1874,1261.74 1856.5,1261.5C 1856.43,1260.04 1856.77,1258.71 1857.5,1257.5 Z"/></g>
<g><path style="opacity:1" fill="#f3f6fe" d="M 2461.5,1258.5 C 2472.7,1269.2 2483.86,1280.2 2495,1291.5C 2547.77,1353.54 2568.77,1425.2 2558,1506.5C 2549.32,1553.52 2529.65,1595.19 2499,1631.5C 2459.62,1675.61 2413.12,1710.11 2359.5,1735C 2306.04,1759.44 2250.37,1776.27 2192.5,1785.5C 2174.47,1749.11 2155.14,1713.44 2134.5,1678.5C 2158.43,1657.4 2181.27,1635.07 2203,1611.5C 2281.94,1524.19 2353.11,1431.19 2416.5,1332.5C 2425.93,1342.61 2434.26,1353.61 2441.5,1365.5C 2444.33,1362.84 2447.33,1360.34 2450.5,1358C 2456.53,1355.32 2462.53,1352.65 2468.5,1350C 2456.36,1336.03 2443.69,1322.53 2430.5,1309.5C 2440.6,1292.3 2450.93,1275.3 2461.5,1258.5 Z"/></g>
<g><path style="opacity:1" fill="#c6eae9" d="M 2727.5,1271.5 C 2728.87,1271.34 2730.21,1271.51 2731.5,1272C 2753.61,1289.28 2773.61,1308.78 2791.5,1330.5C 2786.29,1332.94 2780.96,1335.1 2775.5,1337C 2771.36,1339.87 2767.36,1342.54 2763.5,1345C 2748.65,1321.35 2730.32,1300.68 2708.5,1283C 2710.95,1282.71 2713.29,1282.04 2715.5,1281C 2719.4,1277.59 2723.4,1274.42 2727.5,1271.5 Z"/></g>
<g><path style="opacity:1" fill="#faa27f" d="M 1940.5,1272.5 C 1955.44,1272.43 1965.27,1279.43 1970,1293.5C 1971.85,1318.32 1960.35,1329.82 1935.5,1328C 1915.65,1318.77 1910.48,1304.27 1920,1284.5C 1925.49,1278.01 1932.33,1274.01 1940.5,1272.5 Z"/></g>
<g><path style="opacity:1" fill="#faa280" d="M 2105.5,1292.5 C 2106.51,1310.77 2104.18,1328.44 2098.5,1345.5C 2079.22,1346.39 2068.22,1337.22 2065.5,1318C 2069.64,1295.1 2082.97,1286.6 2105.5,1292.5 Z"/></g>
<g><path style="opacity:1" fill="#19234a" d="M 2024.5,1260.5 C 2025.5,1260.5 2026.5,1260.5 2027.5,1260.5C 2027.33,1268.84 2027.5,1277.17 2028,1285.5C 2028.72,1287.95 2029.72,1290.28 2031,1292.5C 2034.33,1296.5 2037.67,1300.5 2041,1304.5C 2043.67,1310.36 2042.84,1315.53 2038.5,1320C 2033.03,1322.57 2027.53,1324.07 2022,1324.5C 2021.33,1323.83 2021.33,1323.17 2022,1322.5C 2025.75,1319.37 2029.92,1316.87 2034.5,1315C 2035.71,1311.97 2035.21,1309.14 2033,1306.5C 2022.9,1298.53 2018.9,1288.19 2021,1275.5C 2021.85,1270.39 2023.02,1265.39 2024.5,1260.5 Z"/></g>
<g><path style="opacity:1" fill="#f9d583" d="M 2430.5,1309.5 C 2443.69,1322.53 2456.36,1336.03 2468.5,1350C 2462.53,1352.65 2456.53,1355.32 2450.5,1358C 2447.33,1360.34 2444.33,1362.84 2441.5,1365.5C 2434.26,1353.61 2425.93,1342.61 2416.5,1332.5C 2406.82,1321.82 2396.49,1311.82 2385.5,1302.5C 2389.02,1301.86 2392.36,1300.69 2395.5,1299C 2399.02,1295.98 2402.69,1293.14 2406.5,1290.5C 2414.89,1296.36 2422.89,1302.69 2430.5,1309.5 Z"/></g>
<g><path style="opacity:1" fill="#fefdfc" d="M 1980.5,1320.5 C 1999.78,1329.47 2018.78,1338.97 2037.5,1349C 2035.48,1353.36 2032.15,1356.36 2027.5,1358C 2002.07,1363.26 1986.57,1353.1 1981,1327.5C 1980.5,1325.19 1980.34,1322.86 1980.5,1320.5 Z"/></g>
<g><path style="opacity:1" fill="#d3dffe" d="M 3107.5,1321.5 C 3115.18,1342.85 3125.51,1362.85 3138.5,1381.5C 3132.28,1387.59 3127.28,1394.59 3123.5,1402.5C 3111.75,1381.75 3102.41,1359.92 3095.5,1337C 3098.28,1333.21 3101.45,1329.71 3105,1326.5C 3105.85,1324.81 3106.68,1323.14 3107.5,1321.5 Z"/></g>
<g><path style="opacity:1" fill="#f5c7bf" d="M 4797.5,1337.5 C 4797.5,1605.5 4797.5,1873.5 4797.5,2141.5C 4599.5,2141.5 4401.5,2141.5 4203.5,2141.5C 4165.17,2141.5 4126.83,2141.5 4088.5,2141.5C 3898.17,2141.5 3707.83,2141.5 3517.5,2141.5C 3517.5,1873.5 3517.5,1605.5 3517.5,1337.5C 3944.17,1337.5 4370.83,1337.5 4797.5,1337.5 Z"/></g>
<g><path style="opacity:1" fill="#e18b6d" d="M 2023.5,1468.5 C 2023.5,1474.17 2023.5,1479.83 2023.5,1485.5C 2023.47,1491.19 2023.13,1496.86 2022.5,1502.5C 2013.86,1497.85 2005.53,1492.68 1997.5,1487C 1952.51,1456.49 1922.01,1415.32 1906,1363.5C 1917.97,1377.14 1931.47,1388.97 1946.5,1399C 1970.23,1413.52 1995.9,1419.02 2023.5,1415.5C 2023.5,1433.17 2023.5,1450.83 2023.5,1468.5 Z"/></g>
<g><path style="opacity:1" fill="#fefefe" d="M 3557.5,1376.5 C 3957.83,1376.5 4358.17,1376.5 4758.5,1376.5C 4758.5,1610.5 4758.5,1844.5 4758.5,2078.5C 4358.17,2078.5 3957.83,2078.5 3557.5,2078.5C 3557.5,1844.5 3557.5,1610.5 3557.5,1376.5 Z"/></g>
<g><path style="opacity:1" fill="#e0272c" d="M 1829.5,1484.5 C 1773.32,1491.4 1716.99,1498.23 1660.5,1505C 1617.95,1512.59 1583.62,1533.43 1557.5,1567.5C 1363.58,1624.48 1181.25,1706.31 1010.5,1813C 933.795,1862.72 861.795,1918.72 794.5,1981C 781.298,1994.03 768.298,2007.2 755.5,2020.5C 709.978,2067.51 669.145,2118.17 633,2172.5C 645.02,2094.71 658.02,2017.05 672,1939.5C 697.265,1851.25 751.098,1787.08 833.5,1747C 915.048,1710.06 996.715,1673.39 1078.5,1637C 1183.33,1590.5 1290.33,1549.5 1399.5,1514C 1465.51,1493 1532.84,1477.67 1601.5,1468C 1647.4,1462.06 1693.4,1461.06 1739.5,1465C 1770.3,1467.99 1800.3,1474.49 1829.5,1484.5 Z"/></g>
<g><path style="opacity:1" fill="#708bd4" d="M 1829.5,1484.5 C 1829.83,1484.5 1830.17,1484.5 1830.5,1484.5C 1831.5,1485.17 1832.5,1485.83 1833.5,1486.5C 1870.42,1530.34 1899.92,1579.01 1922,1632.5C 1933.33,1659.33 1943.16,1686.66 1951.5,1714.5C 1947.53,1716.49 1943.53,1718.49 1939.5,1720.5C 1935.65,1746.47 1931.98,1772.47 1928.5,1798.5C 1922.73,1802.56 1916.73,1806.39 1910.5,1810C 1909.94,1810.72 1909.61,1811.56 1909.5,1812.5C 1913.68,1847.15 1917.68,1881.82 1921.5,1916.5C 1943.6,1908.95 1965.6,1901.12 1987.5,1893C 1991.97,1891.6 1995.97,1889.43 1999.5,1886.5C 2009.17,1930.5 2018.84,1974.5 2028.5,2018.5C 2037.33,2057.47 2045.83,2096.47 2054,2135.5C 2012.99,2210.01 1956.15,2269.35 1883.5,2313.5C 1875.63,2317.93 1867.96,2322.6 1860.5,2327.5C 1829.25,2344.29 1796.91,2358.63 1763.5,2370.5C 1759.07,2328.13 1754.41,2285.8 1749.5,2243.5C 1750.15,2244.09 1750.82,2244.76 1751.5,2245.5C 1804.39,2198.45 1845.56,2142.78 1875,2078.5C 1895.62,2032.97 1911.62,1985.97 1923,1937.5C 1875.29,1987.24 1823.46,2031.74 1767.5,2071C 1755.77,2078.19 1744.1,2085.36 1732.5,2092.5C 1726.3,2096.1 1719.96,2099.43 1713.5,2102.5C 1674.59,2123.08 1633.59,2138.25 1590.5,2148C 1576.86,2149.45 1563.2,2149.78 1549.5,2149C 1543.02,2147.96 1536.69,2146.46 1530.5,2144.5C 1526.72,2143.44 1523.05,2142.11 1519.5,2140.5C 1472.1,2118.41 1447.1,2081.08 1444.5,2028.5C 1450.22,1941.87 1464.05,1856.53 1486,1772.5C 1501.42,1712.47 1520.09,1653.47 1542,1595.5C 1546.94,1585.95 1552.1,1576.62 1557.5,1567.5C 1583.62,1533.43 1617.95,1512.59 1660.5,1505C 1716.99,1498.23 1773.32,1491.4 1829.5,1484.5 Z"/></g>
<g><path style="opacity:1" fill="#d2dffe" d="M 3664.5,1486.5 C 3774.5,1486.5 3884.5,1486.5 3994.5,1486.5C 3994.5,1493.83 3994.5,1501.17 3994.5,1508.5C 3884.5,1508.5 3774.5,1508.5 3664.5,1508.5C 3664.5,1501.17 3664.5,1493.83 3664.5,1486.5 Z"/></g>
<g><path style="opacity:1" fill="#fefefe" d="M 1833.5,1486.5 C 1863.59,1508.56 1895.93,1527.06 1930.5,1542C 1944.02,1547.51 1958.02,1551.17 1972.5,1553C 1991.48,1555.68 2007.82,1550.51 2021.5,1537.5C 2021.83,1538.17 2022.17,1538.83 2022.5,1539.5C 2082.35,1662.22 2130.18,1789.56 2166,1921.5C 2176.44,1959.83 2186.28,1998.33 2195.5,2037C 2195.32,2038.38 2194.65,2039.21 2193.5,2039.5C 2138.72,2030.78 2083.72,2023.78 2028.5,2018.5C 2018.84,1974.5 2009.17,1930.5 1999.5,1886.5C 2023.92,1868.44 2048.59,1850.61 2073.5,1833C 2076.96,1819 2074.3,1806.17 2065.5,1794.5C 2066.93,1789.77 2066.77,1785.1 2065,1780.5C 2059.88,1775.53 2054.38,1771.2 2048.5,1767.5C 2050.38,1761.96 2050.88,1756.3 2050,1750.5C 2047.32,1744.47 2043.65,1739.14 2039,1734.5C 2039.38,1721.57 2033.88,1712.24 2022.5,1706.5C 2016.3,1709.77 2009.97,1712.77 2003.5,1715.5C 2003.12,1705.27 1997.96,1698.61 1988,1695.5C 1975.74,1701.71 1963.58,1708.04 1951.5,1714.5C 1943.16,1686.66 1933.33,1659.33 1922,1632.5C 1899.92,1579.01 1870.42,1530.34 1833.5,1486.5 Z"/></g>
<g><path style="opacity:1" fill="#e9effe" d="M 3664.5,1486.5 C 3664.5,1493.83 3664.5,1501.17 3664.5,1508.5C 3774.5,1508.5 3884.5,1508.5 3994.5,1508.5C 3884.33,1509.5 3774,1509.83 3663.5,1509.5C 3663.17,1501.65 3663.51,1493.98 3664.5,1486.5 Z"/></g>
<g><path style="opacity:1" fill="#d2dffe" d="M 3664.5,1539.5 C 3760.83,1539.5 3857.17,1539.5 3953.5,1539.5C 3953.5,1546.83 3953.5,1554.17 3953.5,1561.5C 3857.17,1561.5 3760.83,1561.5 3664.5,1561.5C 3664.5,1554.17 3664.5,1546.83 3664.5,1539.5 Z"/></g>
<g><path style="opacity:1" fill="#d4dffe" d="M 4643.5,1540.5 C 4646.79,1541.26 4649.45,1543.1 4651.5,1546C 4617.22,1584.74 4583.05,1623.57 4549,1662.5C 4522.78,1686.02 4496.28,1709.19 4469.5,1732C 4467.71,1732.52 4466.04,1732.19 4464.5,1731C 4438.17,1714.67 4411.83,1698.33 4385.5,1682C 4359.16,1682.44 4332.83,1683.44 4306.5,1685C 4278.98,1717.02 4251.65,1749.19 4224.5,1781.5C 4195.88,1786.49 4167.22,1791.16 4138.5,1795.5C 4138.34,1792.81 4138.5,1790.15 4139,1787.5C 4165.7,1782.52 4192.54,1778.02 4219.5,1774C 4246.83,1741.67 4274.17,1709.33 4301.5,1677C 4330.15,1674.91 4358.81,1673.58 4387.5,1673C 4414,1689.5 4440.5,1706 4467,1722.5C 4491.67,1701.17 4516.33,1679.83 4541,1658.5C 4575.41,1619.32 4609.58,1579.99 4643.5,1540.5 Z"/></g>
<g><path style="opacity:1" fill="#708cd5" d="M 2022.5,1539.5 C 2032.41,1547.91 2041.91,1556.91 2051,1566.5C 2082.02,1601.58 2109.85,1638.91 2134.5,1678.5C 2155.14,1713.44 2174.47,1749.11 2192.5,1785.5C 2212.44,1827.04 2230.44,1869.37 2246.5,1912.5C 2264.19,1960.24 2278.86,2008.9 2290.5,2058.5C 2258.04,2052.25 2225.71,2045.92 2193.5,2039.5C 2194.65,2039.21 2195.32,2038.38 2195.5,2037C 2186.28,1998.33 2176.44,1959.83 2166,1921.5C 2130.18,1789.56 2082.35,1662.22 2022.5,1539.5 Z"/></g>
<g><path style="opacity:1" fill="#a11c21" d="M 1557.5,1567.5 C 1552.1,1576.62 1546.94,1585.95 1542,1595.5C 1520.09,1653.47 1501.42,1712.47 1486,1772.5C 1464.05,1856.53 1450.22,1941.87 1444.5,2028.5C 1447.1,2081.08 1472.1,2118.41 1519.5,2140.5C 1519.59,2141.5 1519.25,2142.33 1518.5,2143C 1407.9,2223.31 1294.57,2299.64 1178.5,2372C 1127.55,2402.31 1075.88,2431.31 1023.5,2459C 1020.85,2459.5 1018.19,2459.66 1015.5,2459.5C 979.124,2456.31 948.124,2441.81 922.5,2416C 898.458,2389.45 879.292,2359.61 865,2326.5C 848.563,2287.53 833.897,2247.86 821,2207.5C 805.126,2154.21 787.459,2101.54 768,2049.5C 764.296,2039.53 760.129,2029.86 755.5,2020.5C 768.298,2007.2 781.298,1994.03 794.5,1981C 861.795,1918.72 933.795,1862.72 1010.5,1813C 1181.25,1706.31 1363.58,1624.48 1557.5,1567.5 Z"/></g>
<g><path style="opacity:1" fill="#e5ecfe" d="M 3664.5,1591.5 C 3768.5,1591.5 3872.5,1591.5 3976.5,1591.5C 3976.5,1599.17 3976.5,1606.83 3976.5,1614.5C 3872.17,1614.5 3767.83,1614.5 3663.5,1614.5C 3663.2,1606.75 3663.53,1599.08 3664.5,1591.5 Z"/></g>
<g><path style="opacity:1" fill="#ee6f58" d="M 2707.5,1583.5 C 2710.54,1590.41 2713.71,1597.41 2717,1604.5C 2718.14,1606.61 2719.64,1608.44 2721.5,1610C 2702.87,1627.62 2687.71,1647.79 2676,1670.5C 2675.75,1667.25 2674.75,1664.25 2673,1661.5C 2669.3,1657.75 2666.96,1653.42 2666,1648.5C 2677.85,1625.45 2691.68,1603.78 2707.5,1583.5 Z"/></g>
<g><path style="opacity:1" fill="#bcc5db" d="M 2015.5,1574.5 C 2017.2,1574.69 2018.53,1575.52 2019.5,1577C 2005.04,1597.06 1985.38,1606.06 1960.5,1604C 1945.02,1601.67 1932.36,1594.5 1922.5,1582.5C 1922.83,1581.5 1923.5,1580.83 1924.5,1580.5C 1953.31,1600.58 1981.98,1600.42 2010.5,1580C 2012.37,1578.3 2014.04,1576.46 2015.5,1574.5 Z"/></g>
<g><path style="opacity:1" fill="#e5ecfe" d="M 3664.5,1644.5 C 3757.5,1644.33 3850.5,1644.5 3943.5,1645C 3944.48,1652.41 3944.81,1659.91 3944.5,1667.5C 3850.83,1667.5 3757.17,1667.5 3663.5,1667.5C 3663.2,1659.75 3663.53,1652.08 3664.5,1644.5 Z"/></g>
<g><path style="opacity:1" fill="#e9effe" d="M 4606.5,1669.5 C 4606.5,1773.5 4606.5,1877.5 4606.5,1981.5C 4621.5,1981.5 4636.5,1981.5 4651.5,1981.5C 4636.34,1982.5 4621.01,1982.83 4605.5,1982.5C 4605.17,1878 4605.5,1773.67 4606.5,1669.5 Z"/></g>
<g><path style="opacity:1" fill="#d2dffe" d="M 4606.5,1669.5 C 4621.5,1669.5 4636.5,1669.5 4651.5,1669.5C 4651.5,1773.5 4651.5,1877.5 4651.5,1981.5C 4636.5,1981.5 4621.5,1981.5 4606.5,1981.5C 4606.5,1877.5 4606.5,1773.5 4606.5,1669.5 Z"/></g>
<g><path style="opacity:1" fill="#e18b6e" d="M 2003.5,1715.5 C 1991.56,1721.8 1979.56,1728.14 1967.5,1734.5C 1954.47,1755.9 1941.47,1777.23 1928.5,1798.5C 1931.98,1772.47 1935.65,1746.47 1939.5,1720.5C 1943.53,1718.49 1947.53,1716.49 1951.5,1714.5C 1963.58,1708.04 1975.74,1701.71 1988,1695.5C 1997.96,1698.61 2003.12,1705.27 2003.5,1715.5 Z"/></g>
<g><path style="opacity:1" fill="#e5ebfe" d="M 3664.5,1698.5 C 3729.83,1698.5 3795.17,1698.5 3860.5,1698.5C 3860.5,1705.83 3860.5,1713.17 3860.5,1720.5C 3795.17,1720.5 3729.83,1720.5 3664.5,1720.5C 3664.5,1713.17 3664.5,1705.83 3664.5,1698.5 Z"/></g>
<g><path style="opacity:1" fill="#f9b385" d="M 1999.5,1886.5 C 1995.97,1889.43 1991.97,1891.6 1987.5,1893C 1965.6,1901.12 1943.6,1908.95 1921.5,1916.5C 1917.68,1881.82 1913.68,1847.15 1909.5,1812.5C 1909.61,1811.56 1909.94,1810.72 1910.5,1810C 1916.73,1806.39 1922.73,1802.56 1928.5,1798.5C 1941.47,1777.23 1954.47,1755.9 1967.5,1734.5C 1979.56,1728.14 1991.56,1721.8 2003.5,1715.5C 2009.97,1712.77 2016.3,1709.77 2022.5,1706.5C 2033.88,1712.24 2039.38,1721.57 2039,1734.5C 2043.65,1739.14 2047.32,1744.47 2050,1750.5C 2050.88,1756.3 2050.38,1761.96 2048.5,1767.5C 2054.38,1771.2 2059.88,1775.53 2065,1780.5C 2066.77,1785.1 2066.93,1789.77 2065.5,1794.5C 2074.3,1806.17 2076.96,1819 2073.5,1833C 2048.59,1850.61 2023.92,1868.44 1999.5,1886.5 Z"/></g>
<g><path style="opacity:1" fill="#d2dffe" d="M 4525.5,1729.5 C 4540.5,1729.5 4555.5,1729.5 4570.5,1729.5C 4570.5,1813.5 4570.5,1897.5 4570.5,1981.5C 4555.5,1981.5 4540.5,1981.5 4525.5,1981.5C 4525.5,1897.5 4525.5,1813.5 4525.5,1729.5 Z"/></g>
<g><path style="opacity:1" fill="#dee8fe" d="M 4364.5,1738.5 C 4364.5,1819.5 4364.5,1900.5 4364.5,1981.5C 4379.5,1981.5 4394.5,1981.5 4409.5,1981.5C 4394.34,1982.5 4379.01,1982.83 4363.5,1982.5C 4363.17,1901 4363.5,1819.66 4364.5,1738.5 Z"/></g>
<g><path style="opacity:1" fill="#d2dffe" d="M 4364.5,1738.5 C 4379.5,1738.5 4394.5,1738.5 4409.5,1738.5C 4409.5,1819.5 4409.5,1900.5 4409.5,1981.5C 4394.5,1981.5 4379.5,1981.5 4364.5,1981.5C 4364.5,1900.5 4364.5,1819.5 4364.5,1738.5 Z"/></g>
<g><path style="opacity:1" fill="#d2dffe" d="M 3664.5,1770.5 C 3775.17,1770.5 3885.83,1770.5 3996.5,1770.5C 3996.5,1840.83 3996.5,1911.17 3996.5,1981.5C 3885.83,1981.5 3775.17,1981.5 3664.5,1981.5C 3664.5,1911.17 3664.5,1840.83 3664.5,1770.5 Z"/></g>
<g><path style="opacity:1" fill="#d2dffe" d="M 4283.5,1772.5 C 4298.5,1772.5 4313.5,1772.5 4328.5,1772.5C 4328.5,1842.17 4328.5,1911.83 4328.5,1981.5C 4313.5,1981.5 4298.5,1981.5 4283.5,1981.5C 4283.5,1911.83 4283.5,1842.17 4283.5,1772.5 Z"/></g>
<g><path style="opacity:1" fill="#d2dffe" d="M 4444.5,1794.5 C 4459.83,1794.5 4475.17,1794.5 4490.5,1794.5C 4490.5,1857.17 4490.5,1919.83 4490.5,1982.5C 4475.17,1982.5 4459.83,1982.5 4444.5,1982.5C 4444.5,1919.83 4444.5,1857.17 4444.5,1794.5 Z"/></g>
<g><path style="opacity:1" fill="#233d88" d="M 1699.5,1801.5 C 1683.02,1842.1 1666.35,1882.43 1649.5,1922.5C 1669.69,1912.08 1689.69,1901.74 1709.5,1891.5C 1772.34,1860.94 1835.67,1831.44 1899.5,1803C 1902.35,1801.57 1905.35,1800.74 1908.5,1800.5C 1908.67,1801.82 1908.34,1802.99 1907.5,1804C 1821.56,1848.47 1734.23,1889.97 1645.5,1928.5C 1642.1,1926.57 1641.6,1923.9 1644,1920.5C 1667.92,1854.06 1694.59,1788.73 1724,1724.5C 1725.01,1723.66 1726.18,1723.33 1727.5,1723.5C 1719.16,1749.85 1709.83,1775.85 1699.5,1801.5 Z"/></g>
<g><path style="opacity:1" fill="#a01c21" d="M 1699.5,1801.5 C 1703.48,1831.28 1706.81,1861.28 1709.5,1891.5C 1689.69,1901.74 1669.69,1912.08 1649.5,1922.5C 1666.35,1882.43 1683.02,1842.1 1699.5,1801.5 Z"/></g>
<g><path style="opacity:1" fill="#d2dffe" d="M 4202.5,1840.5 C 4217.5,1840.5 4232.5,1840.5 4247.5,1840.5C 4247.5,1887.5 4247.5,1934.5 4247.5,1981.5C 4232.5,1981.5 4217.5,1981.5 4202.5,1981.5C 4202.5,1934.5 4202.5,1887.5 4202.5,1840.5 Z"/></g>
<g><path style="opacity:1" fill="#e0e8fe" d="M 4121.5,1869.5 C 4136.83,1869.5 4152.17,1869.5 4167.5,1869.5C 4167.5,1907.17 4167.5,1944.83 4167.5,1982.5C 4152.17,1982.5 4136.83,1982.5 4121.5,1982.5C 4121.5,1944.83 4121.5,1907.17 4121.5,1869.5 Z"/></g>
<g><path style="opacity:1" fill="#d2dffe" d="M 4122.5,1870.5 C 4137.17,1870.5 4151.83,1870.5 4166.5,1870.5C 4166.5,1907.5 4166.5,1944.5 4166.5,1981.5C 4151.83,1981.5 4137.17,1981.5 4122.5,1981.5C 4122.5,1944.5 4122.5,1907.5 4122.5,1870.5 Z"/></g>
<g><path style="opacity:1" fill="#bcc5db" d="M 2105.5,1824.5 C 2106.82,1824.33 2107.99,1824.66 2109,1825.5C 2117.11,1879.01 2103.77,1926.34 2069,1967.5C 2062.6,1974.57 2055.6,1980.91 2048,1986.5C 2047.17,1985.67 2046.33,1984.83 2045.5,1984C 2088.24,1939.65 2108.24,1886.49 2105.5,1824.5 Z"/></g>
<g><path style="opacity:1" fill="#5874be" d="M 1749.5,2243.5 C 1747.66,2223.63 1745.33,2203.97 1742.5,2184.5C 1739.68,2153.77 1736.35,2123.11 1732.5,2092.5C 1744.1,2085.36 1755.77,2078.19 1767.5,2071C 1823.46,2031.74 1875.29,1987.24 1923,1937.5C 1911.62,1985.97 1895.62,2032.97 1875,2078.5C 1845.56,2142.78 1804.39,2198.45 1751.5,2245.5C 1750.82,2244.76 1750.15,2244.09 1749.5,2243.5 Z"/></g>
<g><path style="opacity:1" fill="#bcc5db" d="M 2129.5,1931.5 C 2131.25,1931.42 2132.25,1932.25 2132.5,1934C 2120.18,1955.65 2103.18,1972.65 2081.5,1985C 2076.79,1987.73 2071.79,1989.57 2066.5,1990.5C 2066.39,1988.1 2067.39,1986.26 2069.5,1985C 2091.83,1969.84 2111.83,1952.01 2129.5,1931.5 Z"/></g>
<g><path style="opacity:1" fill="#1f3c88" d="M 2028.5,2018.5 C 2083.72,2023.78 2138.72,2030.78 2193.5,2039.5C 2225.71,2045.92 2258.04,2052.25 2290.5,2058.5C 2382.91,2079.03 2472.91,2107.53 2560.5,2144C 2569.94,2147.89 2578.94,2152.55 2587.5,2158C 2627.36,2186.17 2653.53,2224.01 2666,2271.5C 2678.62,2323.14 2675.62,2373.8 2657,2423.5C 2593.52,2561.14 2530.02,2698.8 2466.5,2836.5C 2465.67,2836.83 2464.83,2837.17 2464,2837.5C 2448.52,2832.73 2433.02,2828.06 2417.5,2823.5C 2406.36,2819.54 2395.03,2815.88 2383.5,2812.5C 2333.22,2796.68 2282.89,2781.01 2232.5,2765.5C 2221.37,2761.74 2210.04,2758.24 2198.5,2755C 2196.78,2754.48 2195.44,2753.48 2194.5,2752C 2234.63,2668.24 2274.63,2584.4 2314.5,2500.5C 2331.93,2465.14 2349.26,2429.64 2366.5,2394C 2332.5,2393.5 2298.5,2393.33 2264.5,2393.5C 2173.29,2392.89 2083.62,2381.06 1995.5,2358C 1956.6,2346.98 1919.27,2332.15 1883.5,2313.5C 1956.15,2269.35 2012.99,2210.01 2054,2135.5C 2045.83,2096.47 2037.33,2057.47 2028.5,2018.5 Z"/></g>
<g><path style="opacity:1" fill="#e0272c" d="M 1732.5,2092.5 C 1736.35,2123.11 1739.68,2153.77 1742.5,2184.5C 1661.26,2263.26 1576.6,2337.76 1488.5,2408C 1381.88,2492.8 1272.88,2574.3 1161.5,2652.5C 1146.99,2662.84 1132.32,2673 1117.5,2683C 1086.25,2699.8 1053.59,2703.14 1019.5,2693C 1010.77,2689.8 1002.44,2685.8 994.5,2681C 952.674,2653.33 911.008,2625.5 869.5,2597.5C 926.808,2580.83 983.475,2562.5 1039.5,2542.5C 1053.24,2538.81 1066.58,2534.14 1079.5,2528.5C 1213.22,2483.02 1339.22,2422.19 1457.5,2346C 1553.76,2281.42 1637.59,2203.25 1709,2111.5C 1711.06,2108.71 1712.56,2105.71 1713.5,2102.5C 1719.96,2099.43 1726.3,2096.1 1732.5,2092.5 Z"/></g>
<g><path style="opacity:1" fill="#15234b" d="M 3400.5,2103.5 C 3400.5,2137.5 3400.5,2171.5 3400.5,2205.5C 3385.99,2205.17 3371.66,2205.5 3357.5,2206.5C 3357.5,2245.5 3357.5,2284.5 3357.5,2323.5C 3355.17,2323.5 3352.83,2323.5 3350.5,2323.5C 3350.5,2284.5 3350.5,2245.5 3350.5,2206.5C 3233.5,2206.5 3116.5,2206.5 2999.5,2206.5C 2999.17,2221.01 2999.5,2235.34 3000.5,2249.5C 3000.5,2294.17 3000.5,2338.83 3000.5,2383.5C 3044.66,2384.5 3089,2384.83 3133.5,2384.5C 3133.5,2386.83 3133.5,2389.17 3133.5,2391.5C 3032.67,2391.17 2932,2391.5 2831.5,2392.5C 2831.17,2829 2831.5,3265.33 2832.5,3701.5C 2952.5,3701.5 3072.5,3701.5 3192.5,3701.5C 3198.77,3683.68 3205.44,3666.02 3212.5,3648.5C 3213.46,3648.05 3214.29,3647.38 3215,3646.5C 3216.02,3647.63 3216.68,3647.3 3217,3645.5C 3217.33,3646.5 3217.67,3647.5 3218,3648.5C 3219.16,3647.43 3219.99,3647.77 3220.5,3649.5C 3214.37,3666.54 3208.04,3683.54 3201.5,3700.5C 3363.17,3701.5 3524.83,3701.83 3686.5,3701.5C 3686.19,3688.15 3685.52,3674.81 3684.5,3661.5C 3684.5,3660.5 3684.5,3659.5 3684.5,3658.5C 3685.93,3658.42 3687.26,3658.75 3688.5,3659.5C 3689.58,3658.33 3690.42,3657 3691,3655.5C 3691.23,3656.74 3691.73,3657.74 3692.5,3658.5C 3693.93,3672.8 3694.93,3687.13 3695.5,3701.5C 3744.5,3701.5 3793.5,3701.5 3842.5,3701.5C 3932.17,3701.5 4021.83,3701.5 4111.5,3701.5C 4105.5,3685.18 4099.5,3668.85 4093.5,3652.5C 4094.6,3650.9 4095.93,3649.4 4097.5,3648C 4097.17,3647 4096.83,3646 4096.5,3645C 4097.04,3644.28 4097.71,3643.78 4098.5,3643.5C 4106.39,3662.62 4113.73,3681.95 4120.5,3701.5C 4248.83,3701.5 4377.17,3701.5 4505.5,3701.5C 4505.5,3604.17 4505.5,3506.83 4505.5,3409.5C 4505.5,3216.83 4505.5,3024.17 4505.5,2831.5C 4640.83,2831.5 4776.17,2831.5 4911.5,2831.5C 4911.5,2937.83 4911.5,3044.17 4911.5,3150.5C 4911.5,3334.17 4911.5,3517.83 4911.5,3701.5C 4998.5,3701.5 5085.5,3701.5 5172.5,3701.5C 5172.5,3433.17 5172.5,3164.83 5172.5,2896.5C 5172.5,2758.17 5172.5,2619.83 5172.5,2481.5C 5172.5,2451.83 5172.5,2422.17 5172.5,2392.5C 4638.5,2392.5 4104.5,2392.5 3570.5,2392.5C 3567.17,2389.83 3564.17,2386.83 3561.5,2383.5C 3684.17,2383.5 3806.83,2383.5 3929.5,2383.5C 4073.83,2383.5 4218.17,2383.5 4362.5,2383.5C 4487.83,2383.5 4613.17,2383.5 4738.5,2383.5C 4781.84,2383.83 4825.17,2383.5 4868.5,2382.5C 4855.59,2350.61 4842.59,2318.78 4829.5,2287C 4831.96,2285.69 4834.46,2284.52 4837,2283.5C 4850.75,2316.94 4864.59,2350.27 4878.5,2383.5C 4979,2384.5 5079.67,2384.83 5180.5,2384.5C 5180.17,2823.67 5180.5,3262.67 5181.5,3701.5C 5337.17,3701.5 5492.83,3701.5 5648.5,3701.5C 5648.5,3704.17 5648.5,3706.83 5648.5,3709.5C 4057.17,3709.5 2465.83,3709.5 874.5,3709.5C 874.5,3706.83 874.5,3704.17 874.5,3701.5C 1082.83,3701.5 1291.17,3701.5 1499.5,3701.5C 1647.83,3701.5 1796.17,3701.5 1944.5,3701.5C 2058.17,3701.5 2171.83,3701.5 2285.5,3701.5C 2464.5,3701.5 2643.5,3701.5 2822.5,3701.5C 2823.5,3262.67 2823.83,2823.67 2823.5,2384.5C 2880,2384.83 2936.34,2384.5 2992.5,2383.5C 2992.5,2324.5 2992.5,2265.5 2992.5,2206.5C 2978.17,2206.5 2963.83,2206.5 2949.5,2206.5C 2949.5,2172.17 2949.5,2137.83 2949.5,2103.5C 3099.83,2103.5 3250.17,2103.5 3400.5,2103.5 Z"/></g>
<g><path style="opacity:1" fill="#a11c20" d="M 1713.5,2102.5 C 1712.56,2105.71 1711.06,2108.71 1709,2111.5C 1637.59,2203.25 1553.76,2281.42 1457.5,2346C 1339.22,2422.19 1213.22,2483.02 1079.5,2528.5C 1167.56,2465.81 1252.56,2398.98 1334.5,2328C 1401.62,2268.72 1466.95,2207.55 1530.5,2144.5C 1536.69,2146.46 1543.02,2147.96 1549.5,2149C 1563.2,2149.78 1576.86,2149.45 1590.5,2148C 1633.59,2138.25 1674.59,2123.08 1713.5,2102.5 Z"/></g>
<g><path style="opacity:1" fill="#fefefe" d="M 2956.5,2110.5 C 3102.17,2110.5 3247.83,2110.5 3393.5,2110.5C 3393.5,2139.83 3393.5,2169.17 3393.5,2198.5C 3247.83,2198.5 3102.17,2198.5 2956.5,2198.5C 2956.5,2169.17 2956.5,2139.83 2956.5,2110.5 Z"/></g>
<g><path style="opacity:1" fill="#f3dedd" d="M 4797.5,1337.5 C 4798.5,1605.67 4798.83,1874 4798.5,2142.5C 4600.5,2142.5 4402.5,2142.5 4204.5,2142.5C 4204.83,2165.34 4204.5,2188.01 4203.5,2210.5C 4203.5,2187.83 4203.5,2165.17 4203.5,2142.5C 4203.5,2142.17 4203.5,2141.83 4203.5,2141.5C 4401.5,2141.5 4599.5,2141.5 4797.5,2141.5C 4797.5,1873.5 4797.5,1605.5 4797.5,1337.5 Z"/></g>
<g><path style="opacity:1" fill="#8d191c" d="M 1519.5,2140.5 C 1523.05,2142.11 1526.72,2143.44 1530.5,2144.5C 1466.95,2207.55 1401.62,2268.72 1334.5,2328C 1252.56,2398.98 1167.56,2465.81 1079.5,2528.5C 1066.58,2534.14 1053.24,2538.81 1039.5,2542.5C 1045.34,2512.66 1039.34,2485.49 1021.5,2461C 1019.29,2460.81 1017.29,2460.31 1015.5,2459.5C 1018.19,2459.66 1020.85,2459.5 1023.5,2459C 1075.88,2431.31 1127.55,2402.31 1178.5,2372C 1294.57,2299.64 1407.9,2223.31 1518.5,2143C 1519.25,2142.33 1519.59,2141.5 1519.5,2140.5 Z"/></g>
<g><path style="opacity:1" fill="#f2a89a" d="M 4088.5,2141.5 C 4126.83,2141.5 4165.17,2141.5 4203.5,2141.5C 4203.5,2141.83 4203.5,2142.17 4203.5,2142.5C 4165.5,2142.5 4127.5,2142.5 4089.5,2142.5C 4089.5,2165.17 4089.5,2187.83 4089.5,2210.5C 4089.17,2210.5 4088.83,2210.5 4088.5,2210.5C 4088.5,2187.5 4088.5,2164.5 4088.5,2141.5 Z"/></g>
<g><path style="opacity:1" fill="#f1927f" d="M 4203.5,2142.5 C 4203.5,2165.17 4203.5,2187.83 4203.5,2210.5C 4165.5,2210.5 4127.5,2210.5 4089.5,2210.5C 4089.5,2187.83 4089.5,2165.17 4089.5,2142.5C 4127.5,2142.5 4165.5,2142.5 4203.5,2142.5 Z"/></g>
<g><path style="opacity:1" fill="#f3f6fe" d="M 1742.5,2184.5 C 1745.33,2203.97 1747.66,2223.63 1749.5,2243.5C 1754.41,2285.8 1759.07,2328.13 1763.5,2370.5C 1796.91,2358.63 1829.25,2344.29 1860.5,2327.5C 1941.31,2476.45 2021.65,2625.79 2101.5,2775.5C 2048.57,2999.8 1995.91,3224.13 1943.5,3448.5C 1942.6,3449.21 1942.26,3450.21 1942.5,3451.5C 1953.68,3451.83 1964.68,3451.49 1975.5,3450.5C 1983.83,3450.5 1992.17,3450.5 2000.5,3450.5C 1994.09,3478.07 1988.09,3505.74 1982.5,3533.5C 1978.29,3547.85 1974.96,3562.52 1972.5,3577.5C 1972.57,3578.96 1972.23,3580.29 1971.5,3581.5C 1962.01,3621.26 1953.01,3661.26 1944.5,3701.5C 1796.17,3701.5 1647.83,3701.5 1499.5,3701.5C 1421.78,3620.32 1352.62,3532.65 1292,3438.5C 1240.16,3356.74 1198.83,3269.74 1168,3177.5C 1112.47,3003.14 1110.3,2828.14 1161.5,2652.5C 1272.88,2574.3 1381.88,2492.8 1488.5,2408C 1576.6,2337.76 1661.26,2263.26 1742.5,2184.5 Z"/></g>
<g><path style="opacity:1" fill="#5f6a87" d="M 3400.5,2103.5 C 3401.5,2137.66 3401.83,2172 3401.5,2206.5C 3387.17,2206.5 3372.83,2206.5 3358.5,2206.5C 3358.17,2206.5 3357.83,2206.5 3357.5,2206.5C 3371.66,2205.5 3385.99,2205.17 3400.5,2205.5C 3400.5,2171.5 3400.5,2137.5 3400.5,2103.5 Z"/></g>
<g><path style="opacity:1" fill="#e4ebfe" d="M 3350.5,2323.5 C 3349.83,2323.5 3349.5,2323.17 3349.5,2322.5C 3349.5,2298.17 3349.5,2273.83 3349.5,2249.5C 3233.17,2249.5 3116.83,2249.5 3000.5,2249.5C 2999.5,2235.34 2999.17,2221.01 2999.5,2206.5C 3116.5,2206.5 3233.5,2206.5 3350.5,2206.5C 3350.5,2245.5 3350.5,2284.5 3350.5,2323.5 Z"/></g>
<g><path style="opacity:1" fill="#f5c7be" d="M 4088.5,2210.5 C 4088.83,2210.5 4089.17,2210.5 4089.5,2210.5C 4127.5,2210.5 4165.5,2210.5 4203.5,2210.5C 4203.5,2245.83 4203.5,2281.17 4203.5,2316.5C 4165.17,2316.5 4126.83,2316.5 4088.5,2316.5C 4088.5,2281.17 4088.5,2245.83 4088.5,2210.5 Z"/></g>
<g><path style="opacity:1" fill="#fefefe" d="M 3000.5,2249.5 C 3116.83,2249.5 3233.17,2249.5 3349.5,2249.5C 3349.5,2273.83 3349.5,2298.17 3349.5,2322.5C 3289.5,2321.37 3229.5,2320.53 3169.5,2320C 3151.11,2325.72 3139.61,2337.89 3135,2356.5C 3134.5,2365.49 3134.33,2374.49 3134.5,2383.5C 3089.83,2383.5 3045.17,2383.5 3000.5,2383.5C 3000.5,2338.83 3000.5,2294.17 3000.5,2249.5 Z"/></g>
<g><path style="opacity:1" fill="#d1defe" d="M 5018.5,2383.5 C 4971.83,2383.5 4925.17,2383.5 4878.5,2383.5C 4864.59,2350.27 4850.75,2316.94 4837,2283.5C 4834.46,2284.52 4831.96,2285.69 4829.5,2287C 4842.59,2318.78 4855.59,2350.61 4868.5,2382.5C 4825.17,2383.5 4781.84,2383.83 4738.5,2383.5C 4750.02,2343.15 4774.02,2312.65 4810.5,2292C 4854.33,2272.44 4898.67,2271.44 4943.5,2289C 4983.88,2308.22 5008.88,2339.72 5018.5,2383.5 Z"/></g>
<g><path style="opacity:1" fill="#112049" d="M 1883.5,2313.5 C 1919.27,2332.15 1956.6,2346.98 1995.5,2358C 2083.62,2381.06 2173.29,2392.89 2264.5,2393.5C 2281.17,2429.2 2297.84,2464.87 2314.5,2500.5C 2274.63,2584.4 2234.63,2668.24 2194.5,2752C 2195.44,2753.48 2196.78,2754.48 2198.5,2755C 2210.04,2758.24 2221.37,2761.74 2232.5,2765.5C 2231.5,2765.5 2230.5,2765.5 2229.5,2765.5C 2222.37,2784.23 2215.03,2802.9 2207.5,2821.5C 2201.6,2834.98 2195.93,2848.65 2190.5,2862.5C 2188.33,2865.52 2186.66,2868.85 2185.5,2872.5C 2171.63,2907.25 2157.46,2941.92 2143,2976.5C 2142.33,2977.5 2142.33,2978.5 2143,2979.5C 2214.7,3005.9 2286.2,3032.56 2357.5,3059.5C 2317.03,3189.25 2277.36,3319.25 2238.5,3449.5C 2216.17,3449.5 2193.83,3449.5 2171.5,3449.5C 2114.51,3450.43 2057.51,3450.76 2000.5,3450.5C 1992.17,3450.5 1983.83,3450.5 1975.5,3450.5C 1964.45,3451.14 1953.78,3450.48 1943.5,3448.5C 1995.91,3224.13 2048.57,2999.8 2101.5,2775.5C 2021.65,2625.79 1941.31,2476.45 1860.5,2327.5C 1867.96,2322.6 1875.63,2317.93 1883.5,2313.5 Z"/></g>
<g><path style="opacity:1" fill="#ee6e58" d="M 4088.5,2316.5 C 4126.83,2316.5 4165.17,2316.5 4203.5,2316.5C 4236.5,2316.33 4269.5,2316.5 4302.5,2317C 4310.17,2317.78 4317.5,2319.78 4324.5,2323C 4348.76,2335.78 4361.43,2355.95 4362.5,2383.5C 4218.17,2383.5 4073.83,2383.5 3929.5,2383.5C 3932.24,2346.92 3951.57,2324.76 3987.5,2317C 4021.17,2316.5 4054.83,2316.33 4088.5,2316.5 Z"/></g>
<g><path style="opacity:1" fill="#c6e9e9" d="M 3357.5,2206.5 C 3357.83,2206.5 3358.17,2206.5 3358.5,2206.5C 3358.5,2245.5 3358.5,2284.5 3358.5,2323.5C 3380.16,2324.1 3401.83,2324.6 3423.5,2325C 3476.56,2328.38 3522.56,2347.88 3561.5,2383.5C 3564.17,2386.83 3567.17,2389.83 3570.5,2392.5C 3592.82,2419.47 3610.82,2449.14 3624.5,2481.5C 3636.54,2509.79 3647.71,2538.46 3658,2567.5C 3680.13,2636.09 3704.8,2703.76 3732,2770.5C 3748.67,2808.86 3768.67,2845.19 3792,2879.5C 3796.81,2886.83 3802.31,2893.5 3808.5,2899.5C 3862.97,2969.08 3934.63,3007.25 4023.5,3014C 4066.58,3016.51 4109.25,3013.51 4151.5,3005C 4172.63,3000.3 4193.63,2995.13 4214.5,2989.5C 4200.4,2999.39 4185.74,3008.56 4170.5,3017C 4084.34,3060.74 3994.34,3094.41 3900.5,3118C 3898.68,3118.2 3897.35,3119.03 3896.5,3120.5C 3893.46,3119.66 3890.46,3120 3887.5,3121.5C 3811.32,3140.67 3733.99,3152.67 3655.5,3157.5C 3652.29,3157.19 3649.29,3157.52 3646.5,3158.5C 3569.95,3163.05 3495.95,3151.72 3424.5,3124.5C 3421.84,3123.5 3419.17,3122.5 3416.5,3121.5C 3305.66,3071.82 3233.5,2988.49 3200,2871.5C 3193.15,2844.75 3187.49,2817.75 3183,2790.5C 3164.56,2688.09 3150.06,2585.09 3139.5,2481.5C 3136.3,2451.93 3134.63,2422.26 3134.5,2392.5C 3134.5,2389.5 3134.5,2386.5 3134.5,2383.5C 3134.33,2374.49 3134.5,2365.49 3135,2356.5C 3139.61,2337.89 3151.11,2325.72 3169.5,2320C 3229.5,2320.53 3289.5,2321.37 3349.5,2322.5C 3349.5,2323.17 3349.83,2323.5 3350.5,2323.5C 3352.83,2323.5 3355.17,2323.5 3357.5,2323.5C 3357.5,2284.5 3357.5,2245.5 3357.5,2206.5 Z"/></g>
<g><path style="opacity:1" fill="#7b859f" d="M 2992.5,2383.5 C 2936.34,2384.5 2880,2384.83 2823.5,2384.5C 2823.83,2823.67 2823.5,3262.67 2822.5,3701.5C 2822.5,3262.17 2822.5,2822.83 2822.5,2383.5C 2879.17,2383.5 2935.83,2383.5 2992.5,2383.5 Z"/></g>
<g><path style="opacity:1" fill="#435176" d="M 3000.5,2383.5 C 3045.17,2383.5 3089.83,2383.5 3134.5,2383.5C 3134.5,2386.5 3134.5,2389.5 3134.5,2392.5C 3033.5,2392.5 2932.5,2392.5 2831.5,2392.5C 2932,2391.5 3032.67,2391.17 3133.5,2391.5C 3133.5,2389.17 3133.5,2386.83 3133.5,2384.5C 3089,2384.83 3044.66,2384.5 3000.5,2383.5 Z"/></g>
<g><path style="opacity:1" fill="#d1ddfc" d="M 2831.5,2392.5 C 2932.5,2392.5 3033.5,2392.5 3134.5,2392.5C 3134.63,2422.26 3136.3,2451.93 3139.5,2481.5C 3037.17,2481.5 2934.83,2481.5 2832.5,2481.5C 2832.5,2888.17 2832.5,3294.83 2832.5,3701.5C 2831.5,3265.33 2831.17,2829 2831.5,2392.5 Z"/></g>
<g><path style="opacity:1" fill="#d2dffe" d="M 3570.5,2392.5 C 4104.5,2392.5 4638.5,2392.5 5172.5,2392.5C 5172.5,2422.17 5172.5,2451.83 5172.5,2481.5C 4656.5,2481.5 4140.5,2481.5 3624.5,2481.5C 3610.82,2449.14 3592.82,2419.47 3570.5,2392.5 Z"/></g>
<g><path style="opacity:1" fill="#f1f4fd" d="M 2264.5,2393.5 C 2298.5,2393.33 2332.5,2393.5 2366.5,2394C 2349.26,2429.64 2331.93,2465.14 2314.5,2500.5C 2297.84,2464.87 2281.17,2429.2 2264.5,2393.5 Z"/></g>
<g><path style="opacity:1" fill="#f3f6fe" d="M 3139.5,2481.5 C 3150.06,2585.09 3164.56,2688.09 3183,2790.5C 3187.49,2817.75 3193.15,2844.75 3200,2871.5C 3233.5,2988.49 3305.66,3071.82 3416.5,3121.5C 3348.5,3297.16 3280.5,3472.83 3212.5,3648.5C 3205.44,3666.02 3198.77,3683.68 3192.5,3701.5C 3072.5,3701.5 2952.5,3701.5 2832.5,3701.5C 2832.5,3294.83 2832.5,2888.17 2832.5,2481.5C 2934.83,2481.5 3037.17,2481.5 3139.5,2481.5 Z"/></g>
<g><path style="opacity:1" fill="#f3f6fe" d="M 3624.5,2481.5 C 4140.5,2481.5 4656.5,2481.5 5172.5,2481.5C 5172.5,2619.83 5172.5,2758.17 5172.5,2896.5C 5094.66,2990.67 5007.66,3075.34 4911.5,3150.5C 4911.5,3044.17 4911.5,2937.83 4911.5,2831.5C 4776.17,2831.5 4640.83,2831.5 4505.5,2831.5C 4505.5,3024.17 4505.5,3216.83 4505.5,3409.5C 4444.06,3440.83 4382.06,3471.33 4319.5,3501C 4241.49,3536.93 4163.16,3571.77 4084.5,3605.5C 4021.07,3444.22 3958.4,3282.56 3896.5,3120.5C 3897.35,3119.03 3898.68,3118.2 3900.5,3118C 3994.34,3094.41 4084.34,3060.74 4170.5,3017C 4185.74,3008.56 4200.4,2999.39 4214.5,2989.5C 4223.27,2987.38 4226.1,2982.05 4223,2973.5C 4221.42,2971.96 4219.59,2970.79 4217.5,2970C 4081.24,2945.99 3944.9,2922.49 3808.5,2899.5C 3802.31,2893.5 3796.81,2886.83 3792,2879.5C 3768.67,2845.19 3748.67,2808.86 3732,2770.5C 3704.8,2703.76 3680.13,2636.09 3658,2567.5C 3647.71,2538.46 3636.54,2509.79 3624.5,2481.5 Z"/></g>
<g><path style="opacity:1" fill="#f9b284" d="M 2232.5,2765.5 C 2282.89,2781.01 2333.22,2796.68 2383.5,2812.5C 2372.44,2841.35 2361.77,2870.35 2351.5,2899.5C 2303.47,2873.48 2255.47,2847.48 2207.5,2821.5C 2215.03,2802.9 2222.37,2784.23 2229.5,2765.5C 2230.5,2765.5 2231.5,2765.5 2232.5,2765.5 Z"/></g>
<g><path style="opacity:1" fill="#122049" d="M 2383.5,2812.5 C 2395.03,2815.88 2406.36,2819.54 2417.5,2823.5C 2416.28,2845.04 2413.45,2866.37 2409,2887.5C 2401.26,2914.89 2393.43,2942.22 2385.5,2969.5C 2384.88,2969.61 2384.38,2969.94 2384,2970.5C 2382,2965.16 2379.5,2960.16 2376.5,2955.5C 2376.29,2952.76 2375.29,2950.43 2373.5,2948.5C 2366.46,2932.07 2359.12,2915.74 2351.5,2899.5C 2361.77,2870.35 2372.44,2841.35 2383.5,2812.5 Z"/></g>
<g><path style="opacity:1" fill="#d1defe" d="M 2207.5,2821.5 C 2255.47,2847.48 2303.47,2873.48 2351.5,2899.5C 2359.12,2915.74 2366.46,2932.07 2373.5,2948.5C 2357.53,2953.1 2341.53,2957.6 2325.5,2962C 2324.48,2964.77 2324.48,2967.61 2325.5,2970.5C 2343.01,2966.43 2360.01,2961.43 2376.5,2955.5C 2379.5,2960.16 2382,2965.16 2384,2970.5C 2384.38,2969.94 2384.88,2969.61 2385.5,2969.5C 2385.59,2970.5 2385.25,2971.33 2384.5,2972C 2387.08,2977.01 2389.75,2981.84 2392.5,2986.5C 2375.75,2990.52 2359.09,2994.85 2342.5,2999.5C 2342.44,3002.96 2343.44,3005.96 2345.5,3008.5C 2361.77,3003.58 2378.11,2998.91 2394.5,2994.5C 2409.39,3025.29 2424.06,3056.29 2438.5,3087.5C 2438.17,3087.83 2437.83,3088.17 2437.5,3088.5C 2410.96,3078.43 2384.3,3068.77 2357.5,3059.5C 2286.2,3032.56 2214.7,3005.9 2143,2979.5C 2142.33,2978.5 2142.33,2977.5 2143,2976.5C 2157.46,2941.92 2171.63,2907.25 2185.5,2872.5C 2213.6,2886.05 2241.6,2899.88 2269.5,2914C 2270.64,2914.75 2271.64,2914.58 2272.5,2913.5C 2273.08,2912 2273.92,2910.67 2275,2909.5C 2275.75,2908.36 2275.58,2907.36 2274.5,2906.5C 2246.83,2892.67 2219.17,2878.83 2191.5,2865C 2190.75,2864.33 2190.41,2863.5 2190.5,2862.5C 2195.93,2848.65 2201.6,2834.98 2207.5,2821.5 Z"/></g>
<g><path style="opacity:1" fill="#fefefe" d="M 4902.5,2839.5 C 4902.5,3126.83 4902.5,3414.17 4902.5,3701.5C 4772.83,3701.5 4643.17,3701.5 4513.5,3701.5C 4513.5,3414.17 4513.5,3126.83 4513.5,2839.5C 4643.17,2839.5 4772.83,2839.5 4902.5,2839.5 Z"/></g>
<g><path style="opacity:1" fill="#c2c6d1" d="M 4902.5,2839.5 C 4903.5,3127 4903.83,3414.67 4903.5,3702.5C 4773.33,3702.83 4643.33,3702.5 4513.5,3701.5C 4643.17,3701.5 4772.83,3701.5 4902.5,3701.5C 4902.5,3414.17 4902.5,3126.83 4902.5,2839.5 Z"/></g>
<g><path style="opacity:1" fill="#495674" d="M 4878.5,2383.5 C 4925.17,2383.5 4971.83,2383.5 5018.5,2383.5C 5072.83,2383.5 5127.17,2383.5 5181.5,2383.5C 5181.5,2550.5 5181.5,2717.5 5181.5,2884.5C 5181.5,3156.83 5181.5,3429.17 5181.5,3701.5C 5180.5,3262.67 5180.17,2823.67 5180.5,2384.5C 5079.67,2384.83 4979,2384.5 4878.5,2383.5 Z"/></g>
<g><path style="opacity:1" fill="#738ed6" d="M 2190.5,2862.5 C 2190.41,2863.5 2190.75,2864.33 2191.5,2865C 2219.17,2878.83 2246.83,2892.67 2274.5,2906.5C 2275.58,2907.36 2275.75,2908.36 2275,2909.5C 2273.92,2910.67 2273.08,2912 2272.5,2913.5C 2271.64,2914.58 2270.64,2914.75 2269.5,2914C 2241.6,2899.88 2213.6,2886.05 2185.5,2872.5C 2186.66,2868.85 2188.33,2865.52 2190.5,2862.5 Z"/></g>
<g><path style="opacity:1" fill="#fefefe" d="M 5172.5,2896.5 C 5172.5,3164.83 5172.5,3433.17 5172.5,3701.5C 5085.5,3701.5 4998.5,3701.5 4911.5,3701.5C 4911.5,3517.83 4911.5,3334.17 4911.5,3150.5C 5007.66,3075.34 5094.66,2990.67 5172.5,2896.5 Z"/></g>
<g><path style="opacity:1" fill="#89a6a4" d="M 3808.5,2899.5 C 3944.9,2922.49 4081.24,2945.99 4217.5,2970C 4219.59,2970.79 4221.42,2971.96 4223,2973.5C 4226.1,2982.05 4223.27,2987.38 4214.5,2989.5C 4193.63,2995.13 4172.63,3000.3 4151.5,3005C 4109.25,3013.51 4066.58,3016.51 4023.5,3014C 3934.63,3007.25 3862.97,2969.08 3808.5,2899.5 Z"/></g>
<g><path style="opacity:1" fill="#728ed6" d="M 2373.5,2948.5 C 2375.29,2950.43 2376.29,2952.76 2376.5,2955.5C 2360.01,2961.43 2343.01,2966.43 2325.5,2970.5C 2324.48,2967.61 2324.48,2964.77 2325.5,2962C 2341.53,2957.6 2357.53,2953.1 2373.5,2948.5 Z"/></g>
<g><path style="opacity:1" fill="#fbd783" d="M 4698.5,2969.5 C 4726.68,2967 4745.52,2979 4755,3005.5C 4759.57,3034.54 4748.07,3054.04 4720.5,3064C 4689.8,3068.57 4669.96,3056.07 4661,3026.5C 4658.16,2997.21 4670.66,2978.21 4698.5,2969.5 Z"/></g>
<g><path style="opacity:1" fill="#738ed6" d="M 2392.5,2986.5 C 2393.17,2989.17 2393.83,2991.83 2394.5,2994.5C 2378.11,2998.91 2361.77,3003.58 2345.5,3008.5C 2343.44,3005.96 2342.44,3002.96 2342.5,2999.5C 2359.09,2994.85 2375.75,2990.52 2392.5,2986.5 Z"/></g>
<g><path style="opacity:1" fill="#f3f6fe" d="M 3887.5,3121.5 C 3950.45,3283.73 4013.12,3446.07 4075.5,3608.5C 3998.1,3640.37 3920.44,3671.37 3842.5,3701.5C 3793.5,3701.5 3744.5,3701.5 3695.5,3701.5C 3694.93,3687.13 3693.93,3672.8 3692.5,3658.5C 3680.02,3491.51 3667.69,3324.51 3655.5,3157.5C 3733.99,3152.67 3811.32,3140.67 3887.5,3121.5 Z"/></g>
<g><path style="opacity:1" fill="#f3f6fe" d="M 3424.5,3124.5 C 3495.95,3151.72 3569.95,3163.05 3646.5,3158.5C 3658.94,3326.34 3671.61,3494.01 3684.5,3661.5C 3685.52,3674.81 3686.19,3688.15 3686.5,3701.5C 3524.83,3701.83 3363.17,3701.5 3201.5,3700.5C 3208.04,3683.54 3214.37,3666.54 3220.5,3649.5C 3288.87,3474.73 3356.87,3299.73 3424.5,3124.5 Z"/></g>
<g><path style="opacity:1" fill="#15244b" d="M 3896.5,3120.5 C 3958.4,3282.56 4021.07,3444.22 4084.5,3605.5C 4088.97,3618.23 4093.63,3630.9 4098.5,3643.5C 4097.71,3643.78 4097.04,3644.28 4096.5,3645C 4096.83,3646 4097.17,3647 4097.5,3648C 4095.93,3649.4 4094.6,3650.9 4093.5,3652.5C 4087.5,3637.83 4081.5,3623.17 4075.5,3608.5C 4013.12,3446.07 3950.45,3283.73 3887.5,3121.5C 3890.46,3120 3893.46,3119.66 3896.5,3120.5 Z"/></g>
<g><path style="opacity:1" fill="#fad682" d="M 4635.5,3232.5 C 4683.83,3232.5 4732.17,3232.5 4780.5,3232.5C 4780.5,3350.17 4780.5,3467.83 4780.5,3585.5C 4732.17,3585.5 4683.83,3585.5 4635.5,3585.5C 4635.5,3467.83 4635.5,3350.17 4635.5,3232.5 Z"/></g>
<g><path style="opacity:1" fill="#fce0a1" d="M 4635.5,3232.5 C 4684,3231.5 4732.66,3231.17 4781.5,3231.5C 4781.5,3349.83 4781.5,3468.17 4781.5,3586.5C 4732.66,3586.83 4684,3586.5 4635.5,3585.5C 4683.83,3585.5 4732.17,3585.5 4780.5,3585.5C 4780.5,3467.83 4780.5,3350.17 4780.5,3232.5C 4732.17,3232.5 4683.83,3232.5 4635.5,3232.5 Z"/></g>
<g><path style="opacity:1" fill="#18254d" d="M 3655.5,3157.5 C 3667.69,3324.51 3680.02,3491.51 3692.5,3658.5C 3691.73,3657.74 3691.23,3656.74 3691,3655.5C 3690.42,3657 3689.58,3658.33 3688.5,3659.5C 3687.26,3658.75 3685.93,3658.42 3684.5,3658.5C 3684.5,3659.5 3684.5,3660.5 3684.5,3661.5C 3671.61,3494.01 3658.94,3326.34 3646.5,3158.5C 3649.29,3157.52 3652.29,3157.19 3655.5,3157.5 Z"/></g>
<g><path style="opacity:1" fill="#15244b" d="M 3416.5,3121.5 C 3419.17,3122.5 3421.84,3123.5 3424.5,3124.5C 3356.87,3299.73 3288.87,3474.73 3220.5,3649.5C 3219.99,3647.77 3219.16,3647.43 3218,3648.5C 3217.67,3647.5 3217.33,3646.5 3217,3645.5C 3216.68,3647.3 3216.02,3647.63 3215,3646.5C 3214.29,3647.38 3213.46,3648.05 3212.5,3648.5C 3280.5,3472.83 3348.5,3297.16 3416.5,3121.5 Z"/></g>
<g><path style="opacity:1" fill="#fefefe" d="M 4505.5,3409.5 C 4505.5,3506.83 4505.5,3604.17 4505.5,3701.5C 4377.17,3701.5 4248.83,3701.5 4120.5,3701.5C 4113.73,3681.95 4106.39,3662.62 4098.5,3643.5C 4093.63,3630.9 4088.97,3618.23 4084.5,3605.5C 4163.16,3571.77 4241.49,3536.93 4319.5,3501C 4382.06,3471.33 4444.06,3440.83 4505.5,3409.5 Z"/></g>
<g><path style="opacity:1" fill="#828ba4" d="M 1943.5,3448.5 C 1953.78,3450.48 1964.45,3451.14 1975.5,3450.5C 1964.68,3451.49 1953.68,3451.83 1942.5,3451.5C 1942.26,3450.21 1942.6,3449.21 1943.5,3448.5 Z"/></g>
<g><path style="opacity:1" fill="#f9b385" d="M 2171.5,3449.5 C 2162.34,3485.8 2153.34,3522.13 2144.5,3558.5C 2090.49,3550.17 2036.49,3541.83 1982.5,3533.5C 1988.09,3505.74 1994.09,3478.07 2000.5,3450.5C 2057.51,3450.76 2114.51,3450.43 2171.5,3449.5 Z"/></g>
<g><path style="opacity:1" fill="#d2defe" d="M 1982.5,3533.5 C 2036.49,3541.83 2090.49,3550.17 2144.5,3558.5C 2171.14,3585.47 2197.81,3612.47 2224.5,3639.5C 2206.94,3645.97 2189.6,3653.14 2172.5,3661C 2173.44,3663.71 2174.77,3666.21 2176.5,3668.5C 2192.75,3661.31 2209.08,3654.31 2225.5,3647.5C 2226.36,3645.23 2226.36,3642.9 2225.5,3640.5C 2245.47,3660.81 2265.47,3681.14 2285.5,3701.5C 2171.83,3701.5 2058.17,3701.5 1944.5,3701.5C 1953.01,3661.26 1962.01,3621.26 1971.5,3581.5C 1971.29,3583.14 1971.62,3584.64 1972.5,3586C 1997.65,3590.96 2022.82,3595.8 2048,3600.5C 2049.44,3600.44 2050.77,3600.11 2052,3599.5C 2052.98,3597.26 2053.48,3594.93 2053.5,3592.5C 2026.48,3587.59 1999.48,3582.59 1972.5,3577.5C 1974.96,3562.52 1978.29,3547.85 1982.5,3533.5 Z"/></g>
<g><path style="opacity:1" fill="#738ed6" d="M 1972.5,3577.5 C 1999.48,3582.59 2026.48,3587.59 2053.5,3592.5C 2053.48,3594.93 2052.98,3597.26 2052,3599.5C 2050.77,3600.11 2049.44,3600.44 2048,3600.5C 2022.82,3595.8 1997.65,3590.96 1972.5,3586C 1971.62,3584.64 1971.29,3583.14 1971.5,3581.5C 1972.23,3580.29 1972.57,3578.96 1972.5,3577.5 Z"/></g>
<g><path style="opacity:1" fill="#fefefe" d="M 4075.5,3608.5 C 4081.5,3623.17 4087.5,3637.83 4093.5,3652.5C 4099.5,3668.85 4105.5,3685.18 4111.5,3701.5C 4021.83,3701.5 3932.17,3701.5 3842.5,3701.5C 3920.44,3671.37 3998.1,3640.37 4075.5,3608.5 Z"/></g>
<g><path style="opacity:1" fill="#728dd5" d="M 2188.5,3610.5 C 2192.09,3610.46 2194.09,3612.29 2194.5,3616C 2194.36,3616.77 2194.02,3617.44 2193.5,3618C 2177.04,3625.31 2160.54,3632.48 2144,3639.5C 2142.83,3637.17 2141.67,3634.83 2140.5,3632.5C 2140.71,3631.91 2141.04,3631.41 2141.5,3631C 2157.31,3624.24 2172.98,3617.41 2188.5,3610.5 Z"/></g>
<g><path style="opacity:1" fill="#728dd5" d="M 2224.5,3639.5 C 2224.5,3640.17 2224.83,3640.5 2225.5,3640.5C 2226.36,3642.9 2226.36,3645.23 2225.5,3647.5C 2209.08,3654.31 2192.75,3661.31 2176.5,3668.5C 2174.77,3666.21 2173.44,3663.71 2172.5,3661C 2189.6,3653.14 2206.94,3645.97 2224.5,3639.5 Z"/></g>
<g><path style="opacity:1" fill="#80899f" d="M 874.5,3701.5 C 874.5,3704.17 874.5,3706.83 874.5,3709.5C 2465.83,3709.5 4057.17,3709.5 5648.5,3709.5C 4057,3710.5 2465.33,3710.83 873.5,3710.5C 873.19,3707.29 873.523,3704.29 874.5,3701.5 Z"/></g>
</svg>
